<?xml version="1.0" encoding="utf-8"?>
<!-- Generator: Adobe Illustrator 25.4.1, SVG Export Plug-In . SVG Version: 6.00 Build 0)  -->
<svg version="1.1" id="Layer_1" xmlns="http://www.w3.org/2000/svg" xmlns:xlink="http://www.w3.org/1999/xlink" x="0px" y="0px"
	 viewBox="100 100 300 300" style="enable-background:new 0 0 500 500;" xml:space="preserve">
<style type="text/css">
	.st0{clip-path:url(#SVGID_00000041263609527068890380000004835723202662452150_);}
	.st1{fill:#44BEBB;}
	.st2{fill:#689036;}
	.st3{fill:#59843D;}
	.st4{fill:#58853E;}
	.st5{fill:#67913B;}
	.st6{fill:#62C6BD;}
	.st7{fill:#5BC3B7;}
	.st8{fill:#6BC2AA;}
	.st9{fill:#5D9654;}
	.st10{fill:#578540;}
	.st11{fill:#DBF9F8;}
	.st12{fill:#41BEBB;}
	.st13{fill:#62C8C1;}
	.st14{fill:#59C5C0;}
	.st15{fill:#42BEBB;}
	.st16{fill:#FFFFFF;}
</style>
<g>
	<g>
		<g>
			<defs>
				<circle id="SVGID_1_" cx="252.2" cy="266.3" r="109.9"/>
			</defs>
			<clipPath id="SVGID_00000049930946541316152370000002940796252488522401_">
				<use xlink:href="#SVGID_1_"  style="overflow:visible;"/>
			</clipPath>
			<g style="clip-path:url(#SVGID_00000049930946541316152370000002940796252488522401_);">
				<path class="st1" d="M142.9,250.2c0.1-0.5,0.2-1,0.4-1.5c0.9-0.1,2,0.1,0.9-1.3c-0.1-0.7-0.1-1.5-0.2-2.2c0,0,0,0,0,0
					c1-0.3,0.9-0.8,0.1-1.3c0-0.2,0.1-0.5,0.1-0.7c0.1-0.1,0.3-0.1,0.3-0.2c0-0.2-0.1-0.4-0.2-0.5c-0.2-0.8,0.2-1.5,0.6-2.1
					c2.2-2.1,2.4-4.9,2.8-7.7c0-0.2,0-0.5,0-0.7c2,0.1,2.7,2,4,3c1.4,0.9,1.5,3.3,3.6,3.3l0,0c0.1,1.3-0.4,2.7,0.6,3.7
					c2,1.8,2.4,4.5,2.3,6.5c-0.2,2.9,0.7,3.3,3.1,3.3c-0.9,0.4-1.8,0.9-2.7,1.3c0.4,0.6,0.9,1.2,1.1,1.8c0.9,4.5,0.9,9.5,5.5,12.4
					c0,0-0.1,0.2-0.1,0.3c0.8,4.6,5.3,6.4,8.3,7.9c4,2,9.2,2,14,1.9c2.2-0.2,4.4,0.1,6.3,1.4c3.1,0,4.3,4.1,7.7,3.7
					c0,0,0.2,0.4,0.2,0.5c-1.3,2.1,0.4,4.2-0.1,6.3c0,0.3-0.1,0.5-0.1,0.8c-0.2,0.2-0.4,0.5-0.6,0.7c0,0.5-0.1,0.9-0.1,1.4
					c-1,1.8-1.3,3.5,0.8,4.8l0,0c0,0.6,0.1,1.1,0.7,1.4l0,0c0.2,0.2,0.5,0.5,0.7,0.7c0.2,0,0.4,0,0.6,0c0.2,0.7,0.5,1.4,0.7,2.1
					c0,0.6,0.2,1.1,0.8,1.3c0,0,0,0,0,0c0.1,0.6-0.1,1.4,0.2,1.7c4.8,4.3,4,10.1,3.8,15.4c-0.2,6.3-0.4,12.5-0.3,18.7
					c0.1,3.6,0.4,7.4-0.2,11c-1.3,7.3,1.1,13.2,7.6,16.8c2.9,1.7,5.8,3.4,8.8,5.1c2.1-5.6,6.7-10.9,10.8-12.8
					c0.2,1.4-0.6,2.4-1.5,3.3c-1.8,1.8-3.5,3.7-5.3,5.6c-0.6,0.6-1.8,1-1.1,2.2c0.6,1.1,1.8,0.8,2.9,0.8c1.7-0.1,1-0.8,0.7-1.8
					c-0.3-1.1,0.7-1,1.3-0.7c1.2,0.6,2.8,0.4,3.5,2.1c-0.7,0.4-1.4,0.8-2,1.3c-0.5,0.3-1,0.6-0.9,1.3c0.1,0.6,0.7,0.7,1.1,0.6
					c3.2-0.9,5.9,1.7,9.3,1.2c1.5-0.2,3.1-1.1,5.1-0.6c6.2,1.4,12.5-0.5,18.8-0.6c0.9,0,2.1-0.3,2.1-1.4c0.1-3.8,2-2,3.1-0.9
					c2.2,2.2,4.1,1.6,5.9-0.3c1.2-1.2,2.1-2,3.7-0.5c0.7,0.7,2,0.5,2.2-0.7c0.4-2.1,2-1.4,3.2-1.8c2.9-0.9,5.9-0.9,8.8-2.2
					c3.2-1.4,6.1-3.5,9.5-4.7c3.2-1.1,5.7-4.6,9.3-5.8c0.9-0.3,0.1-1.3,0.2-1.8c0.4-1.4,0.2-3.6,2.9-2.5c1.4,0.6,2-0.5,2.2-1.5
					c0.4-1.4,1.5-1.9,2.6-2.5c2.5-1.3,5.7-1.8,5.8-5.9c0-1,0.2-5.1,4-3.4c0.8,0.3,1.2-0.6,0.6-1.3c-1.2-1.4-2.4-2.7-3.6-4.1
					c2.2-2.7,5.2-4,8.4-4.9c0.5,2.5-1.3,3.2-3,4c-1.5,0.7-0.9,1.6-0.4,2.5c0.7,1.2,1.6,1.4,2.5,0.3c2-2.6,4.5-5.1,3-8.9
					c0.7-0.5,1.4-0.9,2.1-1.4c0.7,0,1.4,0,2.1,0c-0.2,1-0.4,2-0.6,3c-1.3,4.4-5.1,7.1-7.2,11c0,0,0,0,0,0c-2.3,2.1-4.7,4.2-6.3,7
					c0,0,0,0,0,0c-0.2,0.2-0.5,0.5-0.7,0.7c0,0,0,0,0,0c-1.9,0.9-3.3,2.3-4.3,4.1l0.1,0.2c0,0-0.2-0.2-0.1-0.2
					c-0.7,0.1-1.2,0.6-1.4,1.3c0,0,0,0,0,0c-5,3.6-10.1,7.1-15.1,10.7c0,0,0,0,0,0c-3.9,1.9-7.8,3.7-11.5,6.1l-0.2,0
					c0,0-0.2,0.1-0.2,0.1c-1,0.3-2,0.6-2.9,0.9c-21.9,8.7-44.3,10.6-67.3,5.4c-9.9-2.2-19.1-6.3-28.3-10.5c0,0,0,0,0,0
					c-2.6-1.8-5.3-3.5-7.9-5.3c0.1-1.6-0.9-1.7-2-1.6l0,0c0-1.6-1-1.5-2.1-1.4c0,0,0,0,0,0c-0.2-1.4-0.4-2.8-0.6-4.3
					c1.1-5,0.7-9.8-0.7-14.7l0,0c0.2-1.2,0.4-2.3,0.7-3.5c0-1.4-0.1-2.7,0.1-4.1c0.4-3.6,0.8-7.1-0.7-10.6c0.2-0.5,0.5-0.9,0.7-1.4
					c1.7-1.9-0.3-2.6-1.2-3.6c-3.1-3.4-6.2-6.9-6.9-11.8c-0.4-2.8-2.3-3.1-4.6-2.8c-0.2,0-0.5,0-0.7,0c-1.5-1.3-3.3-0.4-4.9-0.7
					c-1.8-0.9-3.8-1.2-5.7-2.4c-4.8-3.1-9.2-6.6-13.1-10.8c-0.7-0.7-1.1-1.5-2.2-1.5c-0.2-0.2-0.5-0.5-0.7-0.7
					c0.2-1.7-0.7-2.8-2.1-3.5c-2.1-6.9-1.2-13.9-1.4-20.9C142.6,255.3,144.5,252.8,142.9,250.2z M271.2,372.8
					c-0.1,0.2-0.2,0.4-0.3,0.6c0.2,0.1,0.4,0.3,0.6,0.2c0.1-0.1,0.2-0.4,0.3-0.5C271.6,372.9,271.4,372.8,271.2,372.8z"/>
				<path class="st2" d="M163.6,200.3c0.3-0.4,0.6-0.7,0.9-1.1c3.5-0.3,4-3.1,4.7-5.7c0,0,0,0,0,0c2.4-0.5,4.6-1.1,4-4.3
					c0,0,0,0,0,0c2.7-0.4,5.1-2,7.9-2.2c2-0.1,2.8-1.6,3.7-3.3c0.9-1.8,1.5-4.5,3.3-4.9c1.1-0.3,1.6,2.9,2.6,4.4
					c0.1,0.1,0.1,0.2,0.2,0.3c2.6,3.8,5.3,4.3,8.6,1.7c1.4-1.1,1.7-0.3,2.2,0.8c1.6,3.7-0.2,8.1-4.6,9.3c-4,1.1-5.2,4-6.1,7.3
					c-1.4,0-2.5,0.5-3.1,1.8c-2.2,4.5,0.3,9.3,5.3,10.2c3.4,0.6,6.4,1.1,5.7,5.8c-0.2,1.4,0.7,2.8,2.5,3.3c2,0.5,3.1-0.7,4.1-1.9
					c1-1.1,0.8-2.6,1-4c0.4-3.3-1.6-6.5-0.2-9.9c0.8-1.9,0.8-3.8,3.5-3.9c2.7-0.1,4.5,0.5,5.1,3.4c0.2,1,0.6,2.1,1.9,2.2
					c0.1,0.2,0.2,0.4,0.2,0.6c0,1,0.3,1.8,1.4,2.1c2.5,0.7,2.1-2.4,3.7-3.1c1.1,2.2-0.6,5.6,3.2,6c0,0,0,0,0,0
					c0.2,1.8,1.8,2.4,3,3.1c1.9,1.2,2.4,3,3,4.8c0.5,1.5,0.1,2.4-1.8,2.3c-5.8-0.2-8.7,3.7-11.1,8.1l0,0c-0.3,0.1-0.8,0-1,0.3
					c-2.2,2.8-3.6,6.1-6.6,8.2c-0.1,0.1,0,0.4,0,0.7l0,0c-0.9,0.2-1.7,0.7-1.8,1.5c-0.4,2.9-2.5,4.5-4.7,6c-0.4,0.3-0.4,1-0.6,1.5
					l0,0c-0.2,0.3-0.4,0.5-0.7,0.8c0,0.2,0,0.4-0.1,0.5c-0.9,0.7-0.9,1.4-0.1,2.1c0.1,0.4,0.1,0.8,0.2,1.3c-0.3,1.3-0.5,2.8-2.1,0.7
					c-0.8-1.1-1.1-3.8-3.6-1.9c-0.5,0-0.9,0-1.4-0.1c-0.2-0.9-0.5-1.9-0.7-2.8c0.1-1-0.8-1.8,0.3-3.1c4-4.6,4.8-14.4-0.5-19.1
					c-1.1-0.9-2.2-1.9-3-3.3c-0.6-1-2.1-2.2-3-2.1c-4,0.6-7.6-0.8-11.2-1.8l0,0c-0.1-0.7-0.2-1.4-1.3-1c-4.8,2-8.4-0.1-8.4-5.2
					c0-2.4,0.7-4.6-0.6-7.3c-1.1-2.4-2-4.7-4.4-6.1c0-0.7,0-1.4,0-2.1c0,0,0,0,0,0C163.2,200.9,163.4,200.6,163.6,200.3z"/>
				<path class="st3" d="M359.5,238.9c0.1,0.5,0.2,0.9,0.3,1.4c0.4,4.2,2.1,8.1,1.9,12.4c-0.5,2.1-2.5,2.6-3.7,2
					c-2.5-1.1-5.2-0.3-7.6-1.1c-1.6,0-3.2,0-4.9,0c-2.6-3.1-6.7-3.4-9.8-5.6c-3.9-3-6.3-7.2-8.6-11.3c-1-1.8-2.7-2.4-4.7-1.2
					c0-3.4-2.5-3.4-4.9-3.5c-0.5,0-0.9,0-1.4,0c-0.2-2-2-2.7-3-4.1c-0.6-0.7-1.4-1.4-1.6-2.2c-1.3-3.9-0.3-7.8,0-11.7
					c0.4-5.2,3.2-10.3,2.2-15.5c-1.1-6-1.7-11.8-1.1-17.8c1.3-1.4,3.5-1.7,4.3-3.6c3.6,1.1,5.6,4.5,8.8,6.1l0.1-0.1
					c0,0-0.1,0.2-0.1,0.2c2.2,2.3,4.4,4.5,6.6,6.8c-0.8,2.4-3.2,1.9-4.9,2.5c-1.3,0.5-2.6,0.6-2,2.4c0.5,1.6,1.6,2.2,3.2,1.6
					c2.2-0.9,4.4-1.8,6.7-2.7c0.2,0.1,0.4,0.2,0.5,0.4c-0.2,0.6-0.5,1.1-0.5,1.7c0.9,5.4,0.5,10.6-0.6,15.9c-0.2,1,0.4,2,1.9,2.9
					c4.3,2.7,8.9,5.1,10.5,10.9c1.3,4.8,4.7,6.5,10.1,6.1c0.3,0.4,0.5,0.8,0.8,1.1c0.1,0.4,0.2,0.7,0.3,1.1
					C358.4,235.8,358.7,237.4,359.5,238.9z"/>
				<path class="st4" d="M264.4,156.3c0.7,0.1,1.4,0.1,2.1,0.2c1.8,0.4,3.6,0.8,5.4,1.2c-0.2,3.3-1.5,6.2-3.4,9
					c-1.5,2.1-2.6,4.6-1.8,7.2c1,3.6,1.1,7-0.2,10.5c-1.2,0.3-1.9,1-2.2,2.2c-1.8,0.4-2.2,2.3-3.4,3.3c-0.4,0.1-0.9,0.1-1.3,0.2
					c-0.5-3-3-1.3-4.5-1.8c-9.2-3.2-13.2-12.4-13.2-20.9c0-4.1,0-8.1-4.2-10.4c0.1-0.1,0.1-0.3,0.1-0.4c0.9-0.1,1.9-0.2,2.8-0.2
					C248.5,155.6,256.4,155.7,264.4,156.3z"/>
				<path class="st5" d="M237.6,156.9c4.2,2.4,4.2,6.3,4.2,10.4c-0.1,8.5,4,17.8,13.2,20.9c1.5,0.5,4-1.1,4.5,1.8c0,0,0,0,0,0
					c-0.6,0-1.1,0.2-1.4,0.8c-0.4,0.7-1.5,0.9-1.5,1.9l0,0c-4.3,1.1-7.7,3.1-8.9,7.8c-0.1,0.5-0.1,0.9-0.2,1.4
					c-0.2,0.5-0.6,1-0.7,1.5c-0.6,4.1-2.2,5-6,3.6c-2.3-0.9-3.6-2.5-4.2-4.8c-0.7-2.7-1.3-5.4-1.8-8.1c-0.5-2.3,0.7-5.2-1.9-7
					c-1.2-3.2-1.7-6.5-1.6-9.9c0-2.4,0.9-5.2-2.1-6.7c-0.6-0.3-0.6-1.2-0.3-1.9c1.5-4.1,0.4-7.2-3.3-9.5c0.1-0.1,0.2-0.3,0.3-0.4
					C229.9,158.3,233.7,156.8,237.6,156.9z"/>
				<path class="st6" d="M363,262.7c0,0.5,0,0.9,0,1.4c0,0.9,0,1.9,0,2.8c0,0.7,0,1.4,0,2.1c0,0.5,0,0.9,0,1.4c0,0.5,0,0.9,0,1.4
					c-1.2,3.9-0.3,8.1-1.6,11.9c-1.1-1.1,0.5-3.6-1.3-3.8c-1.8-0.2-2.7,1.5-3.7,3.3c-1.4,2.4-3.2,5.1-6.6,5.4
					c-1.4,1.6-5.9,1.8-2.4,5.6c0.2,0.2-0.1,0.9-0.3,1.3c-1,1.9-0.3,3.2,1.3,4.3c0,0.7,0,1.4,0,2.1c-0.8,0-1.7-0.1-2.8-0.1
					c0.5,1.1,1,2,1.4,2.9c-0.2,0-0.5,0-0.7,0c-2.3-1.7-5.1-0.3-5.9,2.8c0.1,0.2,0.1,0.4,0,0.5c-0.4,0.1-0.8,0.1-1.2,0.2
					c-1.1-0.1-1.4,1-2.1,1.4c-0.7-0.4-1-1.5-2.1-1.4c0.2-0.7,0.7-1.1,1.3-1.4c2.6-1.6,1.8-3.2,0-4.9c0,0,0,0,0,0
					c-0.3-1.9,0.7-3.9-0.7-5.6c0.1-0.4,0.1-0.9,0.2-1.3c1.3-0.2,1.3-1.1,1.3-2.1l0,0c2.3-0.8,4-2.2,4.2-4.9c0.2-0.1,0.3-0.1,0.5-0.1
					c0.7-0.2,0.9-0.7,0.9-1.4c0.1-1,0.6-1.6,1.4-2.1c1.5-0.1,1.4-1.2,1.3-2.2c0-0.2,0-0.4,0-0.5c0.2-0.3,0.4-0.6,0.7-0.9
					c0-0.4,0.1-0.8,0.1-1.2c1.9-0.5,1.6-1.6,0.7-2.8c0-0.5,0.1-0.9,0.1-1.4c0.6-1.8,2.4-2.7,3.3-4.3l0,0c0.2-0.2,0.5-0.4,0.7-0.6
					c0.7-0.6,1.4-1.2,2.1-1.8c3.1-2.9,3-4.6-0.6-6.7c-1.6-0.9-3.4-1.5-5-2.3c-1.5-0.8-3.6-1.9-2.5-3.8c0.9-1.8,2.6-0.2,4,0.3
					c0.4,0.2,0.9,0.3,1.3,0.5c0.2,0.2,0.5,0.4,0.7,0.6c0,0.9,0.5,1.4,1.4,1.5c0.4,0.8,1,1.3,1.9,1.4c2.4,1.8,4.7,4.1,8.2,2.7l0.2,0
					L363,262.7z M345.2,298.9c-0.2-0.1-0.4-0.3-0.6-0.2c-0.1,0.1-0.2,0.4-0.3,0.6c0.2,0.1,0.4,0.3,0.6,0.2
					C345.1,299.4,345.1,299.1,345.2,298.9z"/>
				<path class="st5" d="M194.5,172c2.1-1.6,4.4-3,6.9-3.7c0.5,0.6,1.2,0.8,1.9,0.7c4.2-0.7,6.1,1.5,7.1,5.2
					c0.9,3.2,3.1,5.4,6.5,5.9c1.4,0.2,2.7,0.5,4.1,0.8c0,1.4-0.1,2.7-0.5,4c-0.7,2.1,0,3.5,2.3,3.9c1,2.4,1.4,4.9,0.2,7.4
					c-0.9,0.1-1.6,0.9-2.7,0.4c-0.6-0.3-1.3-1.4-2-0.2c-0.4,0.9,0,1.8,0.7,2.5c0.4,0.4,0.9,0.7,1.4,1c1.6,1.2,1.8,3.1,0.7,4.2
					c-1.1,1.1-2.5-0.3-3.5-1.3c-1.4-1.3-1.9-3.4-3.6-4.6c0,0,0,0,0,0c-0.9-2.9-2.9-2.3-5-1.4c-0.2-0.2-0.5-0.4-0.7-0.6
					c-0.2-2.2,0.6-4,1.6-6c1.4-2.9,1-6-0.7-8.6c-1.1-1.5-3.2-2.7-5.2-2C198.1,182.1,194.9,178.3,194.5,172z"/>
				<path class="st7" d="M155.3,238.3c-2.2-0.1-2.3-2.4-3.6-3.3c-1.4-0.9-2.1-2.8-4-3c0-0.3-0.1-0.6-0.1-0.9c-0.1-0.2,0-0.4,0.1-0.5
					c0.6-0.3,0.7-0.9,0.6-1.5c0-0.2,0-0.4,0.1-0.6c1.6,0.1,1-1.9,2.2-2.3c0.9,0.8,0.7,2.4,1.9,3c2.3,2.4,5.2,4.5,5.3,8.2
					c0.1,6.9,4,12.2,7.2,17.7c0,0.8-0.1,1.6,0.7,2.1l0,0c0.1,1.5,0.4,3,1.9,3.8c0.1,0.4,0.1,0.8,0.2,1.1c0.2,1.5,1,2.8,2.5,2.6
					c1.7-0.2,0.8-1.7,0.7-2.7c0.1-0.7,0.2-1.4,0.3-2l0,0c0.2,0,0.5,0,0.7,0c0,0.9,0.5,1.4,1.4,1.4c0.2,0.3,0.4,0.5,0.7,0.8
					c0,0.2,0,0.4,0.1,0.6c-0.1,0.9,0.4,1.3,1.2,1.6c0.1,0.7,0.1,1.5,0.9,1.9c0.3,1.9,1.7,2.9,3.4,3.6c0.2,0.2,0.5,0.5,0.7,0.7
					c1.6,4.2,4.1,5.1,9.8,3.5c2.6-0.7,3.9,1.4,5.5,2.8c0.2,0.3,0.5,0.5,0.7,0.8c0.2,0.2,0.5,0.4,0.7,0.6c0.6,1.1,1.7,1.6,2.8,2
					c0.4,0,0.9,0.1,1.3,0.1c1.3,1.1,2.7,1.5,4.3,1.1c2.3,2.6-1,3.7-1.5,5.6c-0.5,0.1-1,0.3-1.2,0.9c-0.6,0.3-0.7,0.8-0.7,1.4
					c-0.2,0-0.5,0-0.7,0c0.5-2.1-1.1-4.2,0.1-6.3c0.1-0.1-0.1-0.5-0.2-0.5c-3.4,0.5-4.5-3.7-7.7-3.7c0-1.4-0.2-2.8-1.9-2.7
					c-1.5,0.1-3.6-1.3-4.4,1.3c-4.8,0.1-10,0-14-1.9c-3.1-1.5-7.5-3.3-8.3-7.9c0-0.1,0.1-0.3,0.1-0.3c-4.6-2.9-4.5-7.8-5.5-12.4
					c-0.1-0.6-0.7-1.1-1.1-1.8c0.9-0.5,1.8-0.9,2.7-1.3c-2.4,0-3.3-0.4-3.1-3.3c0.1-2-0.3-4.7-2.3-6.5
					C154.9,241,155.4,239.5,155.3,238.3c0.1-0.1,0.1-0.2,0.2-0.3C155.4,238.1,155.4,238.2,155.3,238.3z"/>
				<path class="st5" d="M357,231.8c-5.4,0.4-8.8-1.3-10.1-6.1c-1.6-5.7-6.2-8.2-10.5-10.9c-1.5-0.9-2.1-1.9-1.9-2.9
					c1.2-5.3,1.6-10.5,0.6-15.9c-0.1-0.5,0.3-1.1,0.5-1.7c3,1.9,4.2,5.5,6.9,7.7c0.3,0.4,0.5,0.8,0.8,1.3c1.2,2.2,2.4,4.4,4.1,6.3
					c0,0,0,0,0,0c0.6,1.1,1.1,2.3,1.7,3.4C352.3,219.1,355.4,225.2,357,231.8z"/>
				<path class="st7" d="M247.6,201.9c0.1-0.5,0.1-0.9,0.2-1.4c3-2.6,5.9-5.2,8.9-7.8c0,0,0,0,0,0c1.6,0.2,2.7-0.2,2.9-2
					c0.6-0.1,1.2-0.2,1.3-1c1.2-1.1,1.6-2.9,3.4-3.3c1.5,0,2.2-0.7,2.2-2.2c1.3-3.5,1.2-6.9,0.2-10.5c-0.7-2.7,0.4-5.1,1.8-7.2
					c1.9-2.7,3.2-5.6,3.4-9c1.2,0.1,2.4,0.2,3.6,0.3c0,0,0,0,0,0c1.5,0.9,3.2,1.2,4.9,1.3c0.5,0.1,0.9,0.1,1.4,0.2
					c1.1,0.8,2.3,1.2,3.6,1.2c0.2,0.1,0.4,0.1,0.6,0.1c1.9,1.2,4.1,1.8,6.3,2.1c0,0,0,0,0,0c0,0.2,0,0.4,0.1,0.6
					c-3.9,0.1-7.4-1.5-10.9-2.8c-1.9-0.7-3.6-1.2-2.5,2c0.4,1.3-0.3,3-0.3,4.3c0.1,2.2-1.5,3.2-2.3,4.2c-1.8,2.2-3.5,4.1-3.9,7.1
					c-0.1,0.8-2.3,0.4-2.4,2c-0.1,0.1-0.1,0.2-0.2,0.3c0.1-0.1,0.1-0.2,0.2-0.3c2.6,3.3-2.3,5.6-1.2,8.7c0,0-1,0.4-1.5,0.7
					c-3.2,2.1-6.8,3.7-9.4,6.3c-3.5,3.5-7.8,6.4-10.3,10.8C246.9,205.2,249.2,203.6,247.6,201.9z"/>
				<path class="st1" d="M346.2,304.7c0.2,0,0.5,0,0.7,0c2.8,0.2,1.5-1.6,1.4-2.8c0-0.7,0-1.4,0-2.1c1-3,0.9-6.3,2.5-9.2
					c0.6-1-0.8-1.3-1.1-2c3.4-0.3,5.2-3,6.6-5.4c1-1.8,2-3.5,3.7-3.3c1.8,0.2,0.2,2.7,1.3,3.8c0.1,0.2,0.2,0.4,0.2,0.7
					c0,0.4-0.1,0.7-0.1,1.1c-1.4,3.5-2,7.1-2.6,10.8c-0.1,0.4-0.1,0.7-0.2,1.1c-1.1,1.8-1.8,3.7-2,5.9c-0.1,0.1-0.2,0.3-0.1,0.5
					c-1.1,2.2-2.1,4.4-3.2,6.6c-1,0.4-0.9,1.2-0.9,2l0,0c-1.9,0.3-1.3,1.8-1.3,2.9c0,0.4-0.1,0.8-0.1,1.2c-0.2,0-0.4,0.1-0.6,0.1
					c-0.6,0.3-0.8,0.8-0.7,1.4l0,0c-1.2,0.2-2.3,0.5-3.5,0.7c2.7-3.2,2.3-7,2.1-10.8c-0.1-2-1.3-1-2.1-1.1
					C346.2,306.1,346.2,305.4,346.2,304.7z"/>
				<path class="st6" d="M146.2,282.3c0.2,0.2,0.5,0.5,0.7,0.7c-2.5,3.3-1,6.4-0.1,9.8c1.9,6.8,2.9,14,8.2,19.3
					c0.2,0.2,0.2,1,0.1,1.3c-0.8,1.4,0.6,2.1,1,3.1c-0.3,0.3-0.9,0.4-0.3,0.9c0.1-0.3,0.2-0.6,0.3-0.9c0.2,0,0.5,0,0.7,0l0,0
					c1.5,2.1,2.8,4.3,4.5,6.2c0.6,0.7,0.4,1.1,0.4,1.7c0.4,4.5,2,5.3,5.8,2.9c2.3-1.5,4.1-0.6,3.7,2.2c-0.4,2.6,1.9,5.2-0.2,7.8
					c-0.5,0.6,0.1,1.3,1,1.4c3.8,0.5,4.3,2.6,2.8,5.7c-0.4-0.1-0.8-0.1-1.2-0.2c0,0,0,0,0,0c-0.1-0.9-0.6-1.3-1.4-1.5
					c-0.4-0.5-0.9-0.9-1.3-1.4c-0.4-1.2-1.2-2.1-2.3-2.6c0,0,0,0,0,0c-1.4-2-2.8-4.1-4.7-5.7c0,0,0,0,0,0c-0.3-1.2-1.1-2.1-2.1-2.8
					c-8.5-12.6-14.8-26.2-17.8-41.2c-2.6-12.9-3.7-25.9-1-39c1.6,2.6-0.2,5.1-0.2,7.7c0.2,7-0.6,14,1.4,20.9
					C142.8,281.2,144,282.1,146.2,282.3z"/>
				<path class="st8" d="M221,181c-1.4-0.3-2.7-0.6-4.1-0.8c-3.5-0.6-5.6-2.7-6.5-5.9c-1-3.7-2.9-6-7.1-5.2c-0.7,0.1-1.4,0-1.9-0.7
					c3.7-3.1,8.5-3.9,12.6-6.2c0.6,0,1.2-0.1,1.7-0.6c0.2,0.1,0.3,0,0.4-0.1c1.4,0,2.7-0.4,3.8-1.3c0.4-0.1,0.7-0.1,1.1-0.2
					c1.1-0.2,2.2-0.5,3.3-0.7l-0.1,0c0.5-0.1,1-0.1,1.5-0.2c3.6,2.3,4.7,5.5,3.3,9.5c-0.3,0.7-0.3,1.6,0.3,1.9
					c3.1,1.5,2.2,4.3,2.1,6.7c-0.1,3.4,0.4,6.7,1.6,9.9c0,0-0.1,0.1-0.1,0.1c-2.2-1-2.4-2.9-2.8-5.1c-0.6-3.2,1.6-7-1.2-9.6
					c-2-1.9-2-3.5-1.2-5.8c1-2.9-0.8-4.8-3.8-5.6c-2.7-0.7-4.1,2.1-6,1.8c-3.1-0.4-5.2,1.8-7.8,2.3c-1.8,0.4-2.2,1.8-1.1,2.8
					c2,1.8,2.5,4.4,3.7,6.5c1.5,2.6,3.6,4.1,6.4,3.9c2.1-0.1,2,1,2.2,2.2L221,181z"/>
				<path class="st8" d="M194.5,172c0.5,6.3,3.6,10,9.5,7.8c2-0.8,4.2,0.4,5.2,2c1.7,2.6,2.1,5.7,0.7,8.6c-0.9,1.9-1.7,3.8-1.6,6
					c-2.8-2.2-0.6-4.6,0.2-6.6c1-2.6,0.9-5.8-1.2-7.3c-1.1-0.8-2.6-1.8-3.8-0.9c-1.5,1.1,0.2,2.2,0.6,3.3c0.8,2.3,2.1,4.7-0.7,6.6
					c0.1-2.4,0.4-4.8-1-7.1c-0.5-0.9-0.6-2-2-2c-1.3-0.1-1.9,0.6-2.3,1.6c-1.1,2.6-2.4,2-4.2,0.5c-2.9-2.3-2.9-5.9-4.5-8.8
					C190.6,173.7,192.6,172.9,194.5,172z"/>
				<path class="st9" d="M189.5,175.7c1.6,2.9,1.7,6.5,4.5,8.8c1.8,1.4,3.1,2.1,4.2-0.5c0.4-1.1,1-1.7,2.3-1.6c1.4,0.1,1.5,1.2,2,2
					c1.3,2.2,1.1,4.7,1,7.1c-0.2,0.5-0.4,0.9-0.6,1.4c-4.2,3-8.8,5.5-11.9,9.8l-0.1-0.1c0.9-3.3,2.1-6.2,6.1-7.3
					c4.4-1.2,6.2-5.6,4.6-9.3c-0.5-1.1-0.8-1.9-2.2-0.8c-3.3,2.6-6,2-8.6-1.7c-0.1-0.1-0.1-0.2-0.2-0.3c-1-1.5-1.5-4.6-2.6-4.4
					c-1.8,0.4-2.3,3.1-3.3,4.9c-0.8,1.6-1.7,3.2-3.7,3.3c-2.8,0.2-5.2,1.8-7.9,2.2c0.5-1.1,1.4-1.9,2.5-2.6c7.5-1.2,8.4-1.9,9-7.5
					C186.1,177.5,187.4,176.1,189.5,175.7z"/>
				<path class="st10" d="M163,201.2c0,0.7,0,1.4,0,2.1c-0.2,0.4-0.4,0.8-0.5,1.3c-0.8,4.5-1.9,8.9-6.7,11c-0.6,0.3,0,1.2-0.2,1.5
					c-1.5,2.2,1.5,6.3-3.1,7.2c-0.3-1.2-0.7-2.4-1-3.6C154.5,213.7,158.1,207.1,163,201.2z"/>
				<path class="st5" d="M351,257.2c-0.2-0.2-0.5-0.4-0.7-0.6c0-1,0-1.9,0-2.9c2.5,0.8,5.1,0,7.6,1.1c1.2,0.6,3.2,0.1,3.7-2
					c0.2,0.1,0.4,0.2,0.5,0.2c0.1,0.9,0.1,1.9,0.2,2.8c0,1.9,0,3.7,0,5.6c-2.9,0.7-5.3-1.5-8-1.3c-0.9-0.1-1.5-0.7-1.9-1.4
					C352.4,257.7,352,257.2,351,257.2z"/>
				<path class="st8" d="M184.7,179c-0.6,5.6-1.5,6.3-9,7.5C178.3,183.5,181.3,180.9,184.7,179z"/>
				<path class="st6" d="M348.1,321.9c-1.8,1.1-1.7,3.8-3.9,4.6c0.2-1,0.4-2,0.6-3c0-1,0.1-2-0.5-2.9c-1.1-1.7,0.6-1,1.2-1.3
					c0.2-0.2,0.5-0.5,0.7-0.7l0,0c1.2-0.2,2.3-0.5,3.5-0.7c-0.3,0.9-0.5,1.8-0.8,2.7c0,0,0,0,0,0c-0.2,0.3-0.4,0.5-0.6,0.8
					C348.2,321.6,348.1,321.8,348.1,321.9z"/>
				<path class="st8" d="M151.5,220.7c0.3,1.2,0.7,2.4,1,3.6c0,0.5,0,0.9,0,1.4c0,1.2,0.1,2.3,0.1,3.5c-1.3-0.6-1-2.2-1.9-3
					c-1.2,0.4-0.6,2.4-2.2,2.3C148.9,225.7,150,223.1,151.5,220.7z"/>
				<path class="st7" d="M297.9,165.4c0.2,0.1,0.4,0.2,0.6,0.2c1.2,1.1,2.6,1.8,4.2,2.1c0,0,0,0,0,0c1.2,1.5,3.5,1.3,4.4,3.2
					c-3.8-0.8-7.4-2.1-10-5.2l0.1-0.1C297.5,165.5,297.7,165.5,297.9,165.4z"/>
				<path class="st9" d="M169.2,193.5c-0.7,2.6-1.2,5.4-4.7,5.7C165.6,196.9,167.3,195.1,169.2,193.5z"/>
				<path class="st7" d="M147.6,232.7c-0.4,2.8-0.6,5.6-2.8,7.7c0.3-2.7,1-5.2,2.1-7.7C147.2,232.7,147.4,232.7,147.6,232.7z"/>
				<path class="st9" d="M173.2,189.1c0.6,3.3-1.7,3.8-4,4.3C170.1,191.6,171.6,190.3,173.2,189.1z"/>
				<path class="st6" d="M351.1,315.3c0-1.2-0.6-2.6,1.3-2.9c-0.2,0.9-0.5,1.8-0.7,2.8C351.5,315.2,351.3,315.3,351.1,315.3z"/>
				<path class="st7" d="M144.1,247.4c1.1,1.4-0.1,1.3-0.9,1.3c0.1-0.4,0.1-0.9,0.2-1.3C143.6,247.4,143.9,247.4,144.1,247.4z"/>
				<path class="st6" d="M144.1,247.4c-0.3,0-0.5,0-0.8,0c0-0.8-0.1-1.6,0.6-2.2C144,245.9,144.1,246.6,144.1,247.4z"/>
				<path class="st8" d="M147.6,232.7c-0.2,0-0.5,0-0.7,0c0-0.6,0-1.2,0.6-1.6c0,0.3,0.1,0.6,0.1,0.9
					C147.6,232.2,147.6,232.5,147.6,232.7z"/>
				<path class="st8" d="M148.3,229.1c0,0.6,0,1.2-0.6,1.5C147.6,230,147.7,229.4,148.3,229.1z"/>
				<path class="st7" d="M295.8,165c0.2,0,0.5-0.1,0.7-0.1c0.2,0.1,0.4,0.1,0.6,0.1c0,0.2,0.1,0.4,0.2,0.6c0,0-0.1,0.1-0.1,0.1
					C296.7,165.5,296.3,165.2,295.8,165z"/>
				<path class="st7" d="M144.1,243.9c0.8,0.5,0.8,1-0.1,1.3C144,244.7,144,244.3,144.1,243.9z"/>
				<path class="st9" d="M163.6,200.3c-0.2,0.3-0.4,0.6-0.6,0.9C163.2,200.9,163.4,200.6,163.6,200.3z"/>
				<path class="st11" d="M330,345.2c0.2-0.2,0.5-0.5,0.7-0.7C330.5,344.7,330.2,344.9,330,345.2z"/>
				<path class="st11" d="M348.3,321.5c0.2-0.3,0.4-0.5,0.6-0.8C348.7,320.9,348.5,321.2,348.3,321.5z"/>
				<path class="st6" d="M144.3,242.5c0.1,0.2,0.2,0.3,0.2,0.5c0,0-0.2,0.1-0.3,0.2C144.2,242.9,144.2,242.7,144.3,242.5z"/>
				<polygon class="st5" points="224.3,159.2 224.3,159.1 224.2,159.2 				"/>
				<path class="st12" d="M330.1,331.9c1.2,1.4,2.5,2.7,3.6,4.1c0.6,0.7,0.1,1.7-0.6,1.3c-3.8-1.7-3.9,2.4-4,3.4
					c-0.1,4.1-3.3,4.5-5.8,5.9c-1.2,0.6-2.2,1-2.6,2.5c-0.3,1-0.9,2.1-2.2,1.5c-2.7-1.1-2.5,1.1-2.9,2.5c-0.1,0.6,0.6,1.6-0.2,1.8
					c-3.7,1.2-6.1,4.7-9.3,5.8c-3.5,1.1-6.3,3.3-9.5,4.7c-3,1.3-6,1.2-8.8,2.2c-1.2,0.4-2.8-0.3-3.2,1.8c-0.2,1.2-1.5,1.4-2.2,0.7
					c-1.6-1.5-2.5-0.7-3.7,0.5c-1.8,1.9-3.7,2.5-5.9,0.3c-1.1-1.1-3-2.9-3.1,0.9c0,1.1-1.3,1.4-2.1,1.4c-6.3,0.1-12.5,2-18.8,0.6
					c-2-0.5-3.6,0.4-5.1,0.6c-3.4,0.5-6.1-2.1-9.3-1.2c-0.4,0.1-1,0-1.1-0.6c-0.2-0.7,0.4-1,0.9-1.3c0.7-0.4,1.3-0.8,2-1.3
					c-0.7-1.7-2.4-1.5-3.5-2.1c-0.6-0.3-1.7-0.4-1.3,0.7c0.3,1,1,1.7-0.7,1.8c-1,0-2.2,0.3-2.9-0.8c-0.7-1.2,0.5-1.5,1.1-2.2
					c1.8-1.8,3.5-3.7,5.3-5.6c0.9-0.9,1.7-1.9,1.5-3.3c0.7-1.6,1.3-3.3,0-4.9c-0.2-2.2-0.6-4.3-3.5-4.2c0.2-0.2,0.5-0.5,0.7-0.7
					c1.6-0.7,1.4-2.1,1.4-3.5c0-0.7,0-1.4,0-2.1c0.5-0.2,0.5-0.5,0-0.7c-0.2,0-0.5,0-0.7,0c0-0.5,0-0.9,0-1.4c0-0.2,0-0.4,0-0.7
					c1.2,0,2.1-0.3,2.8-1.6c1.7-3.5,3.5-7,6.3-10c1.3-1.4,3.4-2.9,3.7-4.9c0.4-2.7,2.1-4.2,3.5-6.2c1.5-2,3-4.1,4.1-6.1
					c1-1.8,1.6-4.5,2.3-6.8c1-3.5,1.8-7,2.6-10.6c3.4-3.7,8-5.3,12.6-7c3.6,0.2,6.4,2.8,9.8,3.5c0,1,0,2,1.4,2.1
					c0.9,0.4,1.4,1.1,1.4,2.1c-1.3,1.4-2,2.7-0.6,4.5c3.5,4.5,8.3,7.5,11.6,12.5c2.6,4,4.5,7.8,5.1,12.3c0.3,1.9,1,3.6,3.5,3.4
					c0.2,0.7,0.5,1.4,0.7,2.1c-1.6,2.5,0,4.4,0.8,6.7c0.5,1.7-0.1,3.6,2.1,4.5c1.8,0.7,3.7,2.1,5.5,2c7.2-0.4,13-3.4,16.1-10.3
					C329,332.1,329.5,331.9,330.1,331.9z M297.1,359.9c-1.1,0-1.9,0.6-1.9,1.9c0,0.8,0,1.9,1.1,1.7c0.9-0.2,2-0.8,2.2-2
					C298.7,360.6,298.3,360,297.1,359.9z M276.9,367.6c-0.1-0.4,0-1.1-0.7-1.1c-0.8,0-1.6,0.3-1.8,1.2c-0.2,0.6,0.2,1.1,0.8,1.2
					C276.1,369,276.8,368.8,276.9,367.6z M318.6,346.9c-0.1-0.7-0.6-0.9-1.2-0.9c-0.6,0-1.2,0.3-1.2,1c0,0.7,0.4,1,1.1,0.9
					C318,347.8,318.4,347.4,318.6,346.9z M301,359.5c0,0.7,0.4,1,0.9,1c0.5,0,0.8-0.4,0.9-0.9c0-0.5-0.3-0.9-0.8-0.8
					C301.5,358.9,301.2,359.3,301,359.5z"/>
				<path class="st10" d="M197.2,278.2c-0.2-0.2-0.5-0.4-0.7-0.6c-0.2-0.3-0.5-0.5-0.7-0.8c-1.6-1.4-2.9-3.4-5.5-2.8
					c0-0.3,0-0.5,0-0.8c-0.2-1.4,1.6-1.2,1.9-2.4c-1.9,0-4.4-1.4-4,2.4c-1.2-0.1-2.5,0.5-3.5-0.7c1.1-1.8,2-3.6,2.3-5.7
					c3,1.8,4.6,0.4,6-2.3c0.6-1.2,0.3-3.5,2.9-3.1c1.4,2.4,2.2,5,2.9,7.5c1.3,2.5,0.2,6.1,3.5,7.7c0.4,0.1,0.8,0.1,1.2,0.2l0,0
					c1,3,2.6,2.7,4.4,0.7l0,0c0.6,0,1-0.3,1.3-0.8c2,0.1,2-2.3,3.5-2.9l0.3,0.1l0.3,0c1.1,0.3,2.3,0.5,3.4,0.8
					c0.3,0.3,0.5,0.6,0.8,0.9c0.8,1.9,2.3,0.9,3.6,1.1c1,0.1,1.6,0.6,2,1.5c0,1.2,0.7,1.9,1.8,2.1c3.8,0.7,7.6,1.4,11.3,2.1
					c1.2,0.5,2.1,1.6,3.6,1.5l0.2,0.1c0,0,0.2,0,0.2,0c0.6,0.6,1.1,1.2,1.7,1.9c0,0.5,0,1,0,1.5c0,0.8-0.1,1.6,0,2.4
					c0.3,3.6-1.2,7.7-3.4,9.1c-3.5,2.1-4.3,6.2-7.8,7.9c-1.2,0.6-1,1.7-0.9,3c0.3,4.3,0,8.4-1.9,12.5c-1.9,4.1-3.3,8.5-4.9,12.8
					c-2.3,2.8-3.4,6.2-4.7,9.6c-0.7,1.8-1.6,3.7,0.8,5.1c-1.2,4.3,0.5,8.4,1.2,12.5c-0.5,0.2-0.9,0.5-1.4,0.7
					c-0.7,0-1.4-0.1-2.1-0.1l0,0c-0.4-1.5-1.6-1.8-2.8-2.1c-4.3-3.8-4.6-9.1-4.1-13.9c0.9-8.8,2.5-17.6,4.4-26.2
					c1.3-5.8,0.9-10.5-4.5-13.8c-0.1-0.8-0.6-1.2-1.4-1.2c-0.7-0.3-1.2-0.7-1.4-1.4c0-0.6-0.2-1.2-1-1.2c-0.4-0.1-0.7-0.1-1.1-0.2
					c0,0,0,0,0,0c0-0.4-0.1-0.9-0.1-1.3c0.1-1.1,0.1-2.1-1.4-2.1c-0.2,0-0.4,0-0.6,0c0-0.3,0-0.5,0-0.8c-0.7-3-0.6-6-0.7-9
					c0-0.6,0.2-1.1,0.7-1.4c0.6,0,1.1-0.2,1.2-0.9c0.5-1.9,3.8-3,1.5-5.6c-1-2.2-2.9-0.8-4.3-1.1c-0.4,0-0.9-0.1-1.3-0.1
					C199.9,278.4,198.8,278,197.2,278.2z"/>
				<path class="st13" d="M156,316.6c-0.4-1-1.7-1.7-1-3.1c0.2-0.3,0.2-1.1-0.1-1.3c-5.3-5.4-6.3-12.5-8.2-19.3
					c-0.9-3.4-2.4-6.5,0.1-9.8c1.1,0,1.5,0.8,2.2,1.5c3.9,4.1,8.3,7.6,13.1,10.8c1.9,1.2,3.8,1.6,5.7,2.4c1.3,2.4,3.1,1.6,4.9,0.7
					c0.2,0,0.5,0,0.7,0c0.4,1.3-1.5,2.9-0.2,3.8c2,1.5,1.5,3.4,1.6,5.2c-0.5,0.1-1.1,0.1-1.1,0.8c0,0.1,0.1,0.2,0.2,0.2
					c0.8,0,0.7-0.5,0.8-1.1c4.2-0.6,3.2,2.8,3.8,4.9c0.2,0.7-0.1,2.2,0.6,1.8c3.3-1.8,4.5,1.7,6.8,2.3c-0.2,0.5-0.5,0.9-0.7,1.4
					c-4.8,2.1-6.3,3.7-4.6,6.4c1.8,2.9,1.7,6.1,2.7,9.1c0.8-0.4,1.6-1,2.5-0.8c-0.2,1.2-0.4,2.3-0.7,3.5c-0.2,0.2-1-0.3-0.7,0.5
					c0.2-0.2,0.5-0.3,0.7-0.5c1.4,4.8,1.8,9.7,0.7,14.7c-1.1,0.1-1.9-0.4-2.5-1.3c-1.2-2-3.1-2.5-5.3-2c0-2.4-1.8-2.5-3.4-2.9
					c0,0,0,0,0,0c1.5-3.1,1-5.2-2.8-5.7c-0.8-0.1-1.5-0.8-1-1.4c2.1-2.6-0.2-5.1,0.2-7.8c0.4-2.9-1.3-3.7-3.7-2.2
					c-3.8,2.3-5.4,1.5-5.8-2.9c-0.1-0.6,0.2-1.1-0.4-1.7c-1.7-1.9-3-4.1-4.5-6.2c0.1-0.1,0.1-0.2,0.2-0.3c-0.1,0.1-0.1,0.2-0.2,0.3
					C156.5,316.6,156.2,316.6,156,316.6L156,316.6z"/>
				<path class="st13" d="M218.9,362.7c0.5-0.2,0.9-0.5,1.4-0.7c1.8-0.3,1.6-1.5,1.1-2.6c-1.9-3.9-1.3-7.7,0.2-11.5l0,0
					c0.9-0.1,1.9-0.1,0.7-1.3c0-0.5,0.1-0.9,0.1-1.4c1-1.4-0.5-2.8-0.1-4.2l0,0c2.3-2.1,4.7-4.2,7-6.3l0,0c1.3-2.7,4.7-3.4,5.8-6.3
					c0.6-1.6,1.9-2.9,4-2.7c1.3,1.3,0.8,2.4-0.5,3.4c-3.7,2.9-6.4,6.2-5.1,11.3c0,0.2,0,0.4,0,0.7c-2.8,1.2-5.4,2.7-7.3,5.1
					c2.9-0.4,5-2.3,7.3-3.7c0.2,0,0.5,0,0.7,0c0,0.2,0,0.5,0,0.7c0,0.7,0,1.4,0,2.1c-2-0.2-3.5,0.5-4.7,2.4c1.3,0.3,2.8-0.7,3.3,1.1
					c-0.2,0.2-0.5,0.5-0.7,0.7c-1.4,0.1-2,0.9-2.2,2.2c-0.6,0-1.2,0-1.7,0c-1.7,0.1-3.1,1-2.9,2.7c0.3,2.5,2.2,0.5,3.3,0.7
					c1.1,0.2,1.9-0.6,2.6-1.4c1.5,0,2.9,0,4.4,0c1.3,1.6,0.7,3.3,0,4.9c-4.1,1.9-8.7,7.2-10.8,12.8c-3-1.7-5.9-3.4-8.8-5.1
					c0.1-1.8,2.1-1.6,2.8-2.8C218.9,363.2,218.9,362.9,218.9,362.7z"/>
				<path class="st13" d="M330.1,331.9c-0.6,0-1.1,0.1-1.4,0.7c-1.4,0.2-2.5,1-3.6,1.8c-2.4,1.7-4.5,3.9-7.6,4.5
					c-0.2-1.5-0.9-1.4-1.8-0.6c-0.8,0.6-1.8,2-2.5,0.8c-0.9-1.5,1.1-1.5,1.9-2.2c1.3-1.1,3.2-1.5,5-3.9c-2.6,1.3-3.4,0.4-3.9-1.1
					c0.7-0.5,1.4-1,2.1-1.5c0.1,0.1,0.2,0.3,0.4,0.4c0.1-0.2,0.2-0.3,0.2-0.5c0,0,0,0,0,0c2.5,0.1,2.2-1.7,2.3-3.3
					c0.3-0.5,0.7-0.8,1.3-0.8c0.6,0,1.1-0.1,1.4-0.7l0,0c1.2,0.1,2.4,0,2.7-1.5l0,0c1.7,0.2,2.3-0.9,3-2.3c1.6-3.5,2.5-7.1,2-10.9
					l0,0c1.7-0.2,3-1,3.6-2.7l0,0c1.1-0.1,1.3,1,2.1,1.4c-0.2,1.2-0.7,2.4-0.6,3.6c0.1,1.4-1,3.3,1.2,4.1c0.3,0.5,0.5,0.9,0.8,1.4
					c0.1,1.4,1.1,1.4,2.1,1.4c-0.7,2,2.2,1.9,2.1,3.5c-0.7,0.5-1.4,0.9-2.1,1.4c-1.3,0-2,0.7-2.1,2.1
					C335.2,327.9,332.3,329.3,330.1,331.9z"/>
				<path class="st7" d="M218.9,363.4c-0.7,1.2-2.8,1-2.8,2.8c-6.5-3.5-8.9-9.4-7.6-16.8c0.6-3.6,0.3-7.4,0.2-11
					c-0.1-6.3,0.2-12.5,0.3-18.7c0.1-5.4,1-11.2-3.8-15.4c-0.3-0.3-0.2-1.1-0.2-1.7c0.4,0.1,0.7,0.1,1.1,0.2c0.2,0.5,0.4,1,1,1.2
					c0.3,0.7,0.7,1.2,1.4,1.4c0,0.9,0.5,1.4,1.4,1.2c5.5,3.3,5.8,8,4.5,13.8c-1.9,8.6-3.5,17.4-4.4,26.2c-0.5,4.9-0.3,10.2,4.1,13.9
					c0.2,1.8,1.5,2,2.8,2.1c0,0,0,0,0,0C217.3,363.5,218.2,363.3,218.9,363.4z"/>
				<path class="st14" d="M174.9,307.5c-0.1-1.9,0.4-3.8-1.6-5.2c-1.3-1,0.6-2.5,0.2-3.8c2.2-0.2,4.2,0.1,4.6,2.8
					c0.7,4.9,3.7,8.3,6.9,11.8c0.9,1,2.9,1.7,1.2,3.6c-2.3-0.6-3.5-4.2-6.8-2.3c-0.7,0.4-0.4-1.1-0.6-1.8
					C178.1,310.3,179,306.9,174.9,307.5L174.9,307.5z"/>
				<path class="st14" d="M186,332.6c-1-0.2-1.7,0.4-2.5,0.8c-1.1-3-0.9-6.2-2.7-9.1c-1.7-2.6-0.2-4.3,4.6-6.4
					c1.5,3.4,1.1,7,0.7,10.6C186,329.9,186,331.3,186,332.6z"/>
				<path class="st14" d="M342.7,323.5c0.1-1.6-2.8-1.5-2.1-3.5c0.9,0,1.4-0.5,1.4-1.4l0,0c1,0,1.2-0.8,1.6-1.5
					c2-3.2,0.4-7.3,2.6-10.4c0.9,0.1,2-0.9,2.1,1.1c0.2,3.8,0.6,7.6-2.1,10.8c0,0,0,0,0,0c-0.2,0.2-0.5,0.5-0.7,0.7
					c-0.6,0.2-2.3-0.5-1.2,1.3c0.6,0.9,0.5,1.9,0.5,2.9C344.1,323.5,343.4,323.5,342.7,323.5z"/>
				<path class="st12" d="M338.5,327c0.1-1.3,0.8-2,2.1-2.1c1.5,3.8-1,6.3-3,8.9c-0.8,1.1-1.8,0.9-2.5-0.3c-0.5-0.9-1.1-1.9,0.4-2.5
					C337.2,330.2,339,329.5,338.5,327z"/>
				<path class="st6" d="M178.3,347.4c2.2-0.5,4.1,0.1,5.3,2c0.6,1,1.4,1.5,2.5,1.3c0.2,1.4,0.4,2.8,0.6,4.3
					c-0.6-0.3-1.2-0.6-1.9-0.9c-1-1.1-2.1-2.2-3.5-2.8c-0.3-0.2-0.5-0.4-0.8-0.6C180,349.5,178.2,349.1,178.3,347.4z"/>
				<path class="st9" d="M202.2,289.3c0.1,3,0,6,0.7,9c-0.2,0-0.5,0-0.7,0c0,0,0,0,0,0c0-0.6-0.1-1.1-0.7-1.4c0,0,0,0,0,0
					c-0.3-1.6-0.5-3.2-0.8-4.8c0-0.5,0.1-0.9,0.1-1.4c0.2-0.2,0.4-0.5,0.6-0.7c0-0.3,0.1-0.5,0.1-0.8
					C201.7,289.3,201.9,289.3,202.2,289.3z"/>
				<path class="st14" d="M187.5,277.4c0.8-2.5,2.9-1.2,4.4-1.3c1.7-0.1,1.9,1.3,1.9,2.7C191.8,277.6,189.7,277.2,187.5,277.4z"/>
				<path class="st13" d="M146.2,282.3c-2.3-0.2-3.4-1.1-2.1-3.5C145.5,279.6,146.4,280.6,146.2,282.3z"/>
				<path class="st14" d="M172.8,298.4c-1.8,0.9-3.6,1.7-4.9-0.7C169.5,297.9,171.3,297.1,172.8,298.4z"/>
				<path class="st7" d="M200.7,292.1c0.3,1.6,0.5,3.2,0.8,4.8C199.4,295.7,199.7,294,200.7,292.1z"/>
				<path class="st6" d="M188.8,356.5c-0.9-0.1-1.7-0.5-2.1-1.4C187.8,355,188.8,354.9,188.8,356.5z"/>
				<path class="st6" d="M190.8,358c-0.9-0.3-1.6-0.7-2-1.6C190,356.3,191,356.4,190.8,358z"/>
				<path class="st9" d="M203.5,299.1c1.5,0,1.5,1.1,1.4,2.1c-0.2,0-0.4,0-0.7,0C204,300.5,203.7,299.8,203.5,299.1z"/>
				<path class="st12" d="M271.2,372.8c0.2,0.1,0.4,0.2,0.6,0.2c-0.1,0.2-0.1,0.5-0.3,0.5c-0.1,0.1-0.4-0.1-0.6-0.2
					C271,373.1,271.1,373,271.2,372.8z"/>
				<path class="st7" d="M201.5,296.9c0.6,0.3,0.7,0.8,0.7,1.4C201.6,298.1,201.5,297.6,201.5,296.9z"/>
				<path class="st7" d="M204.2,301.2c0.2,0,0.4,0,0.7,0c0,0.4,0.1,0.9,0.1,1.3C204.4,302.3,204.3,301.8,204.2,301.2z"/>
				<path class="st7" d="M202.2,298.3c0.2,0,0.5,0,0.7,0c0,0.3,0,0.5,0,0.8C202.7,298.8,202.4,298.6,202.2,298.3z"/>
				<path class="st7" d="M201.3,290.1c-0.2,0.2-0.4,0.5-0.6,0.7C201,290.5,201.2,290.3,201.3,290.1z"/>
				<path class="st3" d="M152.5,225.7c0-0.5,0-0.9,0-1.4c4.6-0.8,1.6-5,3.1-7.2c0.2-0.3-0.4-1.3,0.2-1.5c4.8-2.1,5.9-6.5,6.7-11
					c0.1-0.4,0.3-0.8,0.5-1.3c2.4,1.4,3.3,3.7,4.4,6.1c1.2,2.6,0.5,4.8,0.6,7.3c0,5.1,3.6,7.2,8.4,5.2c1-0.4,1.1,0.3,1.3,1
					c-0.1,0.1-0.1,0.2-0.2,0.3c0.1-0.1,0.1-0.2,0.2-0.3c3.7,1,7.2,2.4,11.2,1.8c0.9-0.1,2.4,1.1,3,2.1c0.8,1.4,1.9,2.3,3,3.3
					c5.3,4.6,4.5,14.5,0.5,19.1c-1.1,1.3-0.2,2.1-0.3,3.1c-2.2,0-1.6,1.5-1.4,2.8c-6.6,0.2-11.9,3.5-13.3,8.4
					c-1.7,0.3-1.9-2.1-3.5-2.1c-1,0.1-2.1-0.3-2.8,0.7c-0.2-0.3-0.4-0.5-0.7-0.8c0-0.4,0-0.9,0-1.3c0-0.9-0.3-1.5-1.2-2.2
					c-2.3-1.8-6.8-2.2-5.4-7c0.2-0.8-0.9-1.1-1.7-1.3c-3-0.8-4.1-3-3-6c0.4-1,1.4-2.3,0.5-2.9c-3.5-2.1-4-5.2-3.8-8.7
					c0-0.4-0.2-1.1-0.5-1.2C155.9,229.6,154.4,227.4,152.5,225.7z"/>
				<path class="st8" d="M214.1,198.4c1.7,1.1,2.1,3.2,3.6,4.6c1,0.9,2.4,2.4,3.5,1.3c1.1-1.1,1-3-0.7-4.2c-0.5-0.3-1-0.6-1.4-1
					c-0.7-0.7-1.1-1.6-0.7-2.5c0.6-1.2,1.3-0.1,2,0.2c1,0.5,1.8-0.3,2.7-0.4l0.2,0.2c-1.7,3.2,0.5,6.2,0.5,9.3
					c0,2.5,2.9,4.4,2.4,7.3c0,0.2,0.7,0.7,1,0.7c3.6,0.3,4.6,3.4,6.5,5.6c0.4,1.2,0.8,2.4,1.1,3.6c0.4,1.7,0.1,3-1.9,3.3
					c1.4-4.8-1.8-9.5-7.5-11.1c0,0,0,0,0,0c-0.5-2-1.1-4-1.7-5.9c-0.3-1-1-1.9-2.1-2.1c-1.6-0.3-1.1,1.1-1.4,1.8
					c-0.7,1.6-2,1.2-3.2,1.2c-0.1-0.2-0.1-0.4-0.2-0.6c-0.1-0.5-0.1-0.9-0.2-1.4c-0.9-4.4-2.9-6.3-7.1-6.3c-3.5,0.1-3.8,3.2-4.6,5.7
					c-0.4,1.3-0.5,2.7-0.7,4.1c-0.6-0.1-1.3-0.4-1.1-1c0.6-2.8,1-5.7,2.6-8.1c1.2-1.8,2.8-3.3,5.5-1.8
					C214.4,202.5,214.5,202.3,214.1,198.4z"/>
				<path class="st8" d="M203,256.3c-0.1-0.4-0.1-0.8-0.2-1.3c0-0.7,0.1-1.4,0.1-2.1c0.1-0.2,0.1-0.4,0.1-0.6
					c0.2-0.3,0.4-0.5,0.7-0.8c0,0,0,0,0,0c4.2-1.6,6.7-4.5,7-9c0,0,0,0,0,0c5.6-0.5,6.2-5.1,7.6-9.2c0,0,0,0,0,0
					c2.1-0.4,3.2-2.7,5.4-3c0.1,2.3-1.8,3.1-3.2,4.2c-1,0.8-2.3,1.4-2.2,2.9c0.1,2.1-1.2,3.5-2.6,4.2c-3.8,1.7-4.8,5-5.8,8.4
					c-5.3,2.7-5.6,3.2-4.2,6.3c-1,1-0.9,2.1,0,3c0.5,0.5,0.9,0,1.4-0.3c2.7-1.8,6-0.8,5.9,2.3c-0.1,4,2.2,4.4,4.9,4.8
					c1,0.2,2,0.5,3,0.7c0,0.3,0,0.5,0,0.8c-3.9-1.1-10,1-9.7-6.5c0-0.9-0.6-1.8-1.7-1.9c-1.2,0-1.1,1-1.3,1.7
					c-0.2,1.3-1.1,1.8-2.3,1.6c-2-0.3-3.5,0.9-5.1,1.7c-0.3-0.3-0.6-0.6-0.8-0.9c0-1.1,0-2.3-0.1-3.4l0.1-0.1c1,0.5,1.7,2.2,3.1,1
					c1.1-0.9,0.8-2.2,0.3-3.4C203.4,257.1,203.2,256.7,203,256.3z"/>
				<path class="st9" d="M204.1,211.7c0.2-1.4,0.3-2.8,0.7-4.1c0.8-2.5,1.1-5.6,4.6-5.7c4.2-0.1,6.2,1.9,7.1,6.3
					c0.1,0.4,0.1,0.9,0.2,1.4c-1.3-0.2-1.7-1.2-1.9-2.2c-0.6-2.9-2.4-3.6-5.1-3.4c-2.7,0.1-2.8,2.1-3.5,3.9
					c-1.4,3.4,0.6,6.6,0.2,9.9c-0.2,1.4,0,2.9-1,4c-1,1.2-2.1,2.4-4.1,1.9c-1.8-0.5-2.7-1.9-2.5-3.3c0.7-4.7-2.4-5.3-5.7-5.8
					c-5-0.8-7.5-5.7-5.3-10.2c0.6-1.3,1.7-1.8,3.1-1.8c0,0,0.1,0.1,0.1,0.1c-0.3,0.5-0.5,1-0.8,1.5c-2.8,4.6-1.4,8,3.8,9
					c1.8,0.4,3.6,0.9,5.4,1.3c0.2,0.2,0.5,0.5,0.7,0.7c0,1.4,0.1,2.8,0.1,4.2c0.1,1.3,0.6,2.4,1.9,2.5c1.2,0.2,1.8-0.9,2.2-1.9
					c0.9-2.3,1.2-4.6,0-7C204.2,212.7,204.2,212.2,204.1,211.7z"/>
				<path class="st9" d="M223.6,230.5c-2.2,0.2-3.3,2.5-5.4,3c2.5-4.4,5.4-8.3,11.1-8.1c1.9,0.1,2.3-0.8,1.8-2.3
					c-0.6-1.8-1.1-3.6-3-4.8c-1.1-0.7-2.8-1.3-3-3.1c5.7,1.7,8.9,6.4,7.5,11.1c-0.2,0-0.4,0.1-0.6,0.1c-2.6,0.8-6.1-0.9-7.7,2.7l0,0
					C223.9,229.4,223.7,229.9,223.6,230.5L223.6,230.5z"/>
				<path class="st8" d="M195.9,255.1c0.5,0,0.9,0,1.4,0.1c1.6,1.2,2.5,2.8,2.9,4.7c0,0-0.1,0.1-0.1,0.1c-0.5-0.2-1.3-0.3-1.5-0.7
					c-1.9-3.2-4.4-2.4-6.8-1.1c-1.9,1.1-3.7,2.5-5.6,3.8c-0.6-2.5,0.3-3.8,2.9-4.4c1.6-0.3,3.2-1.3,4.7-1.9
					C194.5,255.7,195.3,255.8,195.9,255.1z"/>
				<path class="st9" d="M216.9,210.2c1.2,0,2.6,0.3,3.2-1.2c0.3-0.7-0.2-2.1,1.4-1.8c1.1,0.2,1.8,1,2.1,2.1c0.6,2,1.1,4,1.7,5.9
					c-3.9-0.4-2.2-3.8-3.2-6c-1.6,0.7-1.2,3.8-3.7,3.1C217.2,212,216.9,211.2,216.9,210.2z"/>
				<path class="st9" d="M218.3,233.4c-1.4,4-2,8.6-7.6,9.2c0-0.2-0.1-0.6,0-0.7c3-2.1,4.5-5.4,6.6-8.2
					C217.5,233.5,218,233.5,218.3,233.4z"/>
				<path class="st9" d="M200.2,259.9c-0.5-1.9-1.4-3.5-2.9-4.7c2.5-1.9,2.8,0.8,3.6,1.9c1.6,2.1,1.8,0.6,2.1-0.7
					c0.2,0.4,0.5,0.8,0.6,1.2c0.5,1.2,0.8,2.5-0.3,3.4C201.8,262.1,201.2,260.3,200.2,259.9z"/>
				<path class="st9" d="M210.6,242.6c-0.3,4.6-2.8,7.5-7,9c0.2-0.5,0.2-1.3,0.6-1.5c2.2-1.5,4.2-3.1,4.7-6
					C209,243.3,209.8,242.7,210.6,242.6z"/>
				<path class="st9" d="M195.9,255.1c-0.5,0.7-1.3,0.6-2.1,0.7c0-0.2,0-0.5,0-0.7c-0.2-1.2-0.8-2.7,1.4-2.8
					C195.4,253.2,195.6,254.2,195.9,255.1z"/>
				<path class="st9" d="M202.9,253c0,0.7-0.1,1.4-0.1,2.1C202,254.3,201.9,253.6,202.9,253z"/>
				<path class="st9" d="M203.6,251.6c-0.2,0.3-0.4,0.5-0.7,0.8C203.2,252.1,203.4,251.9,203.6,251.6z"/>
				<path class="st2" d="M322.4,235.5c2-1.2,3.7-0.6,4.7,1.2c2.4,4.2,4.7,8.3,8.6,11.3c0.3,1.5,1,3.3,2.5,3.3c2.4,0.1,3.6,1.7,5.2,3
					c-1.1,2.8-0.1,4.6,2.3,6.3c1.4,1,2.9,1.2,4.3,1.9c3.1,1.5,3.9,3.9,1.5,5.4c-3.9,2.5-7.8,6-12.8,2c-0.4-0.3-1.1-0.1-1.7-0.2
					c-0.2-0.2-0.4-0.4-0.7-0.7c0.3-1.8-0.3-3-1.8-4.2c-2.9-2.3-3-6.3-5.3-9.1l0,0c0.3-1.6-1.4-2.4-1.4-3.8c0-0.6,0.1-1.3,0.1-1.9
					c0.6-3.1-0.7-5.1-3.5-6.3c-0.5-0.7-1.4-1.1-1.4-2.1c1.1-1.4,0-1.2-0.9-1.3c-0.2,0-0.3-0.1-0.5-0.1c-0.1-0.7-0.3-1.4-1.2-1.2
					c-0.7,0.1-0.8,0.7-0.9,1.2c-0.3,0.2-0.5,0.5-0.8,0.7c-1.9,1.9-1.9,3.2,0.1,4.9c0.1,0.2,0.1,0.3,0.1,0.5c-0.4,1,0.5,2.6-1.2,2.8
					c-1.2,0.1-1.3-1.4-1.9-2.2c-0.6-0.9-0.3-2.4-1.9-2.6c-0.1-0.6-0.4-1.4-1-1.2c-3.5,1-4.7-1.2-6-3.8c-0.5-1-1.4-1.8-2.2-2.6
					c0-0.9-0.5-1.4-1.4-1.4c-4.1-0.6-8.1-1.2-11.7,1.7c-1.4,1.1-2.2,3-4.3,3.2c-0.9-0.2-1.7-0.4-0.6-1.5c2.7-2.6,0.7-2.8-1.5-2.8
					c0-1.3-0.2-2.9,1.4-3.5c2.7-1,4-3,4.9-5.6c2.6,0.2,2.9-1.5,2.8-3.5c0.6-0.3,0.7-0.8,0.7-1.4c0.4-0.7,1.2-0.8,1.9-0.8
					c0.3,0.1,0.6,0.1,0.9,0.2c1,1,2.3,1.1,3.1,0.2c0.6-0.7-0.2-1.7-1-2.3c0-0.6-0.1-1.1-0.7-1.4c0.1-0.4,0.2-0.9,0.3-1.3
					c1.1,0,2.2,0,3.2,0c0.1,0.8,0.3,1.7,1.2,1.8c1.2,0,0.8-1.1,0.9-1.8c0.2-0.2,0.5-0.5,0.7-0.7c0.9-0.1,1.4-1.9,2.6-0.8
					c0.6,0.5,1.1,1.4,0.5,2.2c-2.6,3.4-0.1,6.7,0.9,9.4c0.9,2.3,2.8,5.3,6.5,5.2c0.5,0,0.9,0,1.4,0c0.2,1.5-0.6,3.4,1.5,4.1
					C320.1,236.5,321.6,237.5,322.4,235.5z M303.8,230.1c0.2,0.1,0.4,0.3,0.6,0.2c0.1-0.1,0.2-0.4,0.3-0.5c-0.2-0.1-0.4-0.3-0.6-0.2
					C303.9,229.6,303.9,229.9,303.8,230.1z"/>
				<path class="st5" d="M316.1,232c-3.6,0.1-5.6-2.9-6.5-5.2c-1-2.8-3.6-6-0.9-9.4c0.6-0.8,0.1-1.7-0.5-2.2
					c-1.2-1.1-1.7,0.7-2.6,0.8c0-2.2,0.2-4.5-2.8-4.8l0,0c0.1-2.2-0.8-2.7-2.7-1.6c-2.8,2.9-3.6,2.7-5.6-0.8
					c-1.1-1.9-0.5-3.5-0.2-5.3c2.8-2.7,3.6-6.9,7-9c2.4-1.6,3.2-4,4.3-6.5c1.3-3.1,3.1-6.2,6.9-6.9c-0.6,6,0,11.8,1.1,17.8
					c1,5.1-1.7,10.2-2.2,15.5c-0.3,3.9-1.3,7.8,0,11.7c0.3,0.8,1.1,1.5,1.6,2.2C314.1,229.3,315.9,230,316.1,232z"/>
				<path class="st6" d="M312.5,180.8c-3.9,0.7-5.6,3.8-6.9,6.9c-1.1,2.5-1.8,5-4.3,6.5c-3.4,2.2-4.2,6.4-7,9
					c-2,0.3-3.1,2.8-5.5,2.1c1.1-1.9-0.3-4.2,0.6-6c2.1-4.8,4.3-9.6,7.8-13.6c0.7-0.1,1.4,0.1,1.9-0.9c1.1-2.2,2-4.3,1.5-6.8
					c0.1-0.6,0.4-1,0.8-1.4c2.3-2.3,5.5-2.5,8.3-3.5c0.2-0.2,0.5-0.4,0.7-0.6c1.8,1,3.6,2,5.4,3c0.3,0.5,0.7,1.1,1,1.6
					C316,179.1,313.8,179.5,312.5,180.8z"/>
				<path class="st9" d="M337,269.8c0.6,0.1,1.3-0.1,1.7,0.2c5,4,8.9,0.5,12.8-2c2.4-1.5,1.6-3.9-1.5-5.4c-1.4-0.7-2.9-0.9-4.3-1.9
					c-2.4-1.7-3.3-3.5-2.3-6.3c0.7-0.2,1.4-0.5,2.1-0.7c1.6,0,3.2,0,4.9,0c0,1,0,1.9,0,2.9c-0.4-0.2-0.9-0.3-1.3-0.5
					c-1.3-0.5-3-2-4-0.3c-1.1,2,1,3,2.5,3.8c1.6,0.8,3.5,1.4,5,2.3c3.6,2.1,3.7,3.9,0.6,6.7c-0.7,0.6-1.4,1.2-2.1,1.8
					c-0.2,0.2-0.5,0.4-0.7,0.6c0,0,0,0,0,0c-2.2,0.6-5.6,0.2-3.3,4.3c0,0.5-0.1,0.9-0.1,1.4c-0.2,0.9-0.5,1.9-0.7,2.8
					c0,0.4-0.1,0.8-0.1,1.2c-0.2,0.3-0.4,0.6-0.7,0.9c-0.1,0.2-0.1,0.4,0,0.5c-0.8,0.5-1.3,1.2-1.3,2.2c-0.8,0.4-1.4,1.1-1.4,2.1
					c-0.3,0.5-0.6,0.9-0.9,1.4c-0.2,0-0.3,0-0.5,0.1c-0.8,0.5-1.7,1.1-2.5,1.6c-0.1-0.1-0.2-0.2-0.3-0.3c0-2,1-3.3,2.6-4.5
					c2.6-2.1,3.4-5,2.3-8.3c0.4-0.9,0.8-1.8,1.2-2.8C339.9,272.7,339.3,272.4,337,269.8z"/>
				<path class="st8" d="M332.2,190.2c1.1,1.2,2.4,2.2,3,3.8c-2.2,0.9-4.4,1.8-6.7,2.7c-1.6,0.6-2.7,0-3.2-1.6
					c-0.5-1.8,0.8-1.9,2-2.4C329,192,331.4,192.5,332.2,190.2z"/>
				<path class="st5" d="M322.4,235.5c-0.8,2-2.2,1-3.4,0.6c-2.1-0.7-1.3-2.6-1.5-4.1C319.9,232.1,322.4,232.1,322.4,235.5z"/>
				<path class="st5" d="M345.5,253.7c-0.7,0.2-1.4,0.5-2.1,0.7c-1.6-1.3-2.8-2.9-5.2-3c-1.5-0.1-2.2-1.8-2.5-3.3
					C338.8,250.2,342.9,250.6,345.5,253.7z"/>
				<path class="st8" d="M266.4,184.3c0.1,1.5-0.7,2.2-2.2,2.2C264.5,185.3,265.2,184.6,266.4,184.3z"/>
				<path class="st8" d="M260.8,189.8c-0.1,0.7-0.7,0.9-1.3,1l-0.1-0.1c0-0.2,0-0.4,0-0.6c0,0,0,0,0,0
					C259.9,190,260.3,189.9,260.8,189.8z"/>
				<path class="st8" d="M247.6,201.9c1.6,1.6-0.7,3.3,0.1,4.9c0,0.5,0,0.9,0,1.4c-0.8,0-1.6-0.1-2.1,0.7c-3.3,0.5-6.5,0.5-9.1-2.1
					c-2.7-6.2-3.4-12.8-3.6-19.5c0,0,0.1-0.1,0.1-0.1c2.6,1.8,1.4,4.6,1.9,7c0.6,2.7,1.2,5.4,1.8,8.1c0.6,2.2,1.9,3.9,4.2,4.8
					c3.8,1.5,5.4,0.5,6-3.6C247,202.9,247.3,202.4,247.6,201.9z"/>
				<path class="st8" d="M256.6,192.8c-3,2.6-5.9,5.2-8.9,7.8C248.9,195.9,252.3,193.8,256.6,192.8z"/>
				<path class="st8" d="M259.5,190.8c-0.2,1.8-1.4,2.2-2.9,2c0-1,1.1-1.2,1.5-1.9c0.4,0,0.9-0.1,1.3-0.1L259.5,190.8z"/>
				<path class="st4" d="M259.4,190.7c-0.4,0-0.9,0.1-1.3,0.1c0.3-0.6,0.8-0.8,1.4-0.8C259.5,190.3,259.4,190.5,259.4,190.7z"/>
				<path class="st9" d="M336.3,306.8c-0.6,0.3-1.1,0.7-1.3,1.4c0,0,0,0,0,0c-1.9-0.1-3.2,0.8-3.6,2.7c0,0,0,0,0,0
					c-1.8,0.5-1.2,2-1.2,3.1c-0.1,2.4-0.5,4.8-2.1,6.7c-1.6-1.1,0.1-2.3,0-3.5c0.6-1,0.9-2.2,0.7-3.3c-0.6-3.5,1.7-5.3,4-7
					c0.9-0.7,2.3-0.8,2.3-2.2c0-1.2,0-2.3,0-3.5c0-0.5,0.1-1,0.1-1.5c0.4,0.7,0.9,1.5,1.3,2.2c0,0,0,0,0,0
					C336.3,303.5,336.3,305.1,336.3,306.8z"/>
				<path class="st14" d="M349.7,288.6c0.3,0.7,1.6,1,1.1,2c-1.6,2.9-1.5,6.2-2.5,9.2c-1.6-1.1-2.3-2.4-1.3-4.3
					c0.2-0.4,0.5-1.1,0.3-1.3C343.7,290.4,348.3,290.2,349.7,288.6z"/>
				<path class="st8" d="M346.2,306.8c-2.2,3.1-0.6,7.2-2.6,10.4c-0.4,0.7-0.6,1.5-1.6,1.5c0-0.5,0-0.9,0-1.4l0,0
					c1.4-2.2,1.5-4.6,1.3-7c0.6-0.8,0.9-1.7,0.8-2.8c0.8-0.7,1-1.4,0.3-2.5c-0.7,1.3-2.6,0.9-3.1,2.4l0,0c-0.3,0-0.6,0-0.9,0.1
					c0.7-3.1,3.6-4.4,5.9-2.8C346.2,305.4,346.2,306.1,346.2,306.8z"/>
				<path class="st9" d="M362.4,261.4c0.1,0.5,0.2,0.9,0.2,1.4c-3.5,1.5-5.8-0.8-8.2-2.7C357.1,259.9,359.5,262.1,362.4,261.4z"/>
				<path class="st9" d="M335.8,294.9c-0.1,0.4-0.1,0.9-0.2,1.3c-0.9,0.8-0.5,1.9-0.6,2.8c-0.8-0.5-0.7-1.3-0.7-2.1
					c0-0.9,0-1.9,0-2.8c1.4-1.6,1.2-4.6,4.2-4.9c0.1,0.1,0.2,0.2,0.3,0.3c-0.3,1.2-1.7,1.9-1.6,3.3c0,0,0,0,0,0
					C336.2,293.2,335.7,293.9,335.8,294.9z"/>
				<path class="st8" d="M337.7,317.3c-2.3-0.8-1.1-2.7-1.2-4.1c-0.1-1.2,0.4-2.4,0.6-3.6c0.7-0.4,1-1.5,2.1-1.4
					c0,0.2,0,0.5,0.1,0.7c-0.9,0.4-0.7,1.3-0.8,2C337,312.9,338,315.2,337.7,317.3z"/>
				<path class="st8" d="M337.1,292.8c-0.1-1.4,1.3-2,1.6-3.3c0.9-0.5,1.7-1.1,2.5-1.6C341.1,290.6,339.4,292,337.1,292.8z"/>
				<path class="st8" d="M347,275.3c-2.3-4,1.1-3.7,3.3-4.3C349.5,272.7,347.6,273.5,347,275.3z"/>
				<path class="st14" d="M348.2,301.9c0.1,1.2,1.5,3-1.4,2.8c-0.4-0.9-0.9-1.8-1.4-2.9C346.5,301.8,347.4,301.8,348.2,301.9z"/>
				<path class="st8" d="M336.3,306.8c0-1.6,0-3.2,0-4.9C338.1,303.5,338.9,305.1,336.3,306.8z"/>
				<path class="st8" d="M335,299.1c0.2-1-0.3-2,0.6-2.8c1.4,1.7,0.4,3.8,0.7,5.6c-0.4-0.7-0.9-1.5-1.3-2.2
					C335,299.5,335,299.3,335,299.1z"/>
				<path class="st8" d="M346.2,279.5c0.2-0.9,0.5-1.9,0.7-2.8C347.8,278,348.1,279,346.2,279.5z"/>
				<path class="st8" d="M344,284.4c0-1,0.5-1.7,1.3-2.2C345.5,283.2,345.6,284.3,344,284.4z"/>
				<path class="st8" d="M335.8,294.9c-0.1-1,0.3-1.7,1.3-2.1C337.1,293.8,337.1,294.8,335.8,294.9z"/>
				<path class="st9" d="M351,257.2c1,0,1.5,0.5,1.4,1.5C351.5,258.5,351,258.1,351,257.2z"/>
				<path class="st14" d="M345.2,298.9c-0.1,0.2-0.1,0.5-0.3,0.5c-0.1,0.1-0.4-0.1-0.6-0.2c0.1-0.2,0.1-0.5,0.3-0.6
					C344.8,298.6,345,298.8,345.2,298.9z"/>
				<path class="st8" d="M341.8,287.8c0.3-0.5,0.6-0.9,0.9-1.4C342.6,287.1,342.5,287.7,341.8,287.8z"/>
				<path class="st9" d="M339.2,308.9c0-0.2,0-0.5-0.1-0.7c0.4-0.1,0.8-0.1,1.2-0.2c0,0,0.2,0.2,0.2,0.2
					C340.3,308.7,339.8,308.9,339.2,308.9z"/>
				<path class="st9" d="M340.3,307.5c0.3,0,0.6,0,0.9-0.1c-0.2,0.3-0.4,0.5-0.6,0.8c0,0-0.2-0.2-0.2-0.2
					C340.4,307.8,340.4,307.6,340.3,307.5z"/>
				<path class="st8" d="M345.4,281.6c0.2-0.3,0.4-0.6,0.7-0.9C345.8,281,345.6,281.3,345.4,281.6z"/>
				<path class="st8" d="M350.3,271.1c0.2-0.2,0.5-0.4,0.7-0.6C350.8,270.7,350.6,270.9,350.3,271.1z"/>
				<path class="st13" d="M200,215.2c-0.2-0.2-0.5-0.5-0.7-0.7c-1.2-2.5-3.8-2.4-5.8-2.7c-3-0.5-4.1-2.6-3-4.6
					c2.1-4.1,4.7-8,9.2-10.2c1.7-0.8,4.1-1.3,3.3-4.1c0.2-0.5,0.4-0.9,0.6-1.4c2.8-1.9,1.4-4.4,0.7-6.6c-0.4-1.1-2-2.2-0.6-3.3
					c1.2-0.9,2.7,0.1,3.8,0.9c2.1,1.6,2.2,4.7,1.2,7.3c-0.8,2-3,4.3-0.2,6.6c0.2,0.2,0.5,0.4,0.7,0.6c1,2.7,3.3,1.1,5,1.4
					c0,0,0,0,0,0c0.4,4,0.3,4.1-3.1,2.4c-2.7-1.4-4.3,0-5.5,1.8c-1.5,2.4-2,5.3-2.6,8.1c-0.1,0.7,0.6,0.9,1.1,1
					c0,0.5,0.1,0.9,0.1,1.4c-1.3,1.4-0.5,3-0.7,4.6c-0.1,0.9-0.1,2.1-1.3,2c-1.2,0-0.7-1.2-0.8-1.9
					C201.4,216.7,201.7,215.4,200,215.2z"/>
				<path class="st8" d="M222.8,188.9c-2.3-0.4-3.1-1.8-2.3-3.9c0.4-1.3,0.6-2.6,0.5-4c0,0,0.1-0.1,0.1-0.1c1.6,0.4,1.3,1.7,1.3,2.8
					c0.1,1.7-0.3,3.4,0.7,5C223,188.7,222.9,188.8,222.8,188.9z"/>
				<path class="st8" d="M223,196.2c1.2-2.5,0.8-4.9-0.2-7.4c0.1-0.1,0.2-0.1,0.3-0.2c2.3,0.8,1.6,3,2.2,4.6c0.9,2-0.1,3-2.2,3.2
					L223,196.2z"/>
				<path class="st8" d="M214.1,198.4c-1.7-0.4-4,1.3-5-1.4C211.2,196.1,213.2,195.5,214.1,198.4z"/>
				<path class="st10" d="M152.5,225.7c1.9,1.7,3.4,3.9,5.8,5c0.3,0.1,0.5,0.8,0.5,1.2c-0.2,3.5,0.3,6.7,3.8,8.7
					c1,0.6-0.1,1.9-0.5,2.9c-1.1,2.9,0,5.1,3,6c0.8,0.2,2,0.5,1.7,1.3c-1.4,4.8,3,5.2,5.4,7c0.9,0.7,1.2,1.2,1.2,2.2
					c-0.5,0-0.9,0-1.4,0c-0.2,0-0.5,0-0.7,0c-0.1,0-0.2-0.1-0.3-0.1c0.1,0.1,0.2,0.1,0.3,0.2c-0.1,0.7-0.2,1.4-0.3,2
					c-1,0-2.1,0-3.2,0.1c-0.1-0.4-0.1-0.8-0.2-1.1c-0.1-1.5,0.1-3.2-1.9-3.7c0,0,0,0,0,0c0-0.8,0.1-1.6-0.7-2.1
					c-3.2-5.6-7.1-10.8-7.2-17.7c-0.1-3.7-3-5.8-5.3-8.2C152.6,228,152.5,226.8,152.5,225.7z"/>
				<path class="st9" d="M190.3,273.2c0,0.3,0,0.5,0,0.8c-5.7,1.5-8.2,0.6-9.8-3.5c0,0,0.1-0.1,0.1-0.1c0.4,0,0.9,0.1,1.3,0.1
					c0.6,1.1,1.4,2,2.8,2.1c1,1.1,2.3,0.5,3.5,0.7C188.9,273.2,189.6,273.2,190.3,273.2z"/>
				<path class="st10" d="M174.2,262.1c0.7-1.1,1.8-0.6,2.8-0.7c0.2,1.9,1.5,3.6,1.4,5.6c-0.7-0.2-1.4-0.5-2-0.7
					c-0.7-0.4-0.8-1.2-0.9-1.9c0.2-0.9-0.2-1.5-1.2-1.6C174.2,262.5,174.2,262.3,174.2,262.1z"/>
				<path class="st9" d="M167.9,262c1.1,0,2.1,0,3.2-0.1c0.1,1,1,2.5-0.7,2.7C169,264.8,168.1,263.6,167.9,262z"/>
				<path class="st9" d="M176.3,266.2c0.7,0.2,1.4,0.5,2,0.7c0,0,0,0,0,0c0.4,1,1.4,1.6,1.5,2.7l-0.1,0.1
					C178,269.2,176.7,268.2,176.3,266.2z"/>
				<path class="st9" d="M201.3,280.3c1.5,0.3,3.4-1.1,4.3,1.1C204,281.8,202.6,281.4,201.3,280.3z"/>
				<path class="st9" d="M165.8,257.2c2,0.6,1.8,2.2,1.9,3.7C166.2,260.1,165.9,258.7,165.8,257.2z"/>
				<path class="st9" d="M197.2,278.2c1.5-0.1,2.7,0.3,2.8,2C198.9,279.7,197.9,279.3,197.2,278.2z"/>
				<path class="st9" d="M174.3,262.7c1,0.1,1.3,0.7,1.2,1.6C174.7,264,174.2,263.6,174.3,262.7z"/>
				<path class="st9" d="M172.1,259.9c0.5,0,0.9,0,1.4,0c0,0.4,0,0.9,0,1.3C172.6,261.3,172.2,260.8,172.1,259.9z"/>
				<path class="st9" d="M165.1,255.1c0.8,0.5,0.7,1.3,0.7,2.1C165,256.6,165.1,255.8,165.1,255.1z"/>
				<path class="st9" d="M204.1,287c-0.1,0.7-0.6,0.9-1.2,0.9C203.1,287.3,203.6,287.1,204.1,287z"/>
				<path class="st1" d="M155.3,238.3c0.1-0.1,0.1-0.2,0.2-0.3C155.4,238.1,155.4,238.2,155.3,238.3L155.3,238.3z"/>
				<path class="st9" d="M180.4,270.5c-0.2-0.2-0.5-0.5-0.7-0.7c0,0,0.1-0.1,0.1-0.1c0.2,0.2,0.5,0.4,0.7,0.7L180.4,270.5z"/>
				<path class="st9" d="M195.8,276.8c0.2,0.3,0.5,0.5,0.7,0.8C196.2,277.3,196,277,195.8,276.8z"/>
				<path class="st15" d="M247.6,208.2c0-0.5,0-0.9,0-1.4c2.5-4.4,6.8-7.3,10.3-10.8c2.6-2.6,6.2-4.3,9.4-6.3
					c0.5-0.3,1.5-0.7,1.5-0.7c-1.1-3.1,3.8-5.4,1.2-8.7l0,0c0-1.6,2.3-1.2,2.4-2c0.4-2.9,2.1-4.9,3.9-7.1c0.9-1.1,2.4-2.1,2.3-4.2
					c0-1.3,0.7-2.9,0.3-4.3c-1.1-3.3,0.6-2.7,2.5-2c3.5,1.3,7,2.9,10.9,2.8c0,0,0,0,0,0c0.3,1.9,1.8,1.3,3,1.3c0.2,0,0.4,0,0.5,0.1
					c0.4,0.2,0.9,0.5,1.3,0.7c2.6,3.1,6.2,4.4,10,5.2c0,0,0,0.1,0,0.1c0.3,1.1,1.2,0.8,2,0.9c0,0,0,0,0,0c0.3,0.2,0.5,0.4,0.8,0.6
					c0,0,0,0,0,0c0,0.3-0.1,0.5-0.1,0.8c-2.8,1-6,1.1-8.3,3.5c-0.4,0.4-0.7,0.8-0.8,1.4c-2.1,0.3-2.9,1.7-2.8,3.7
					c0,1.4,0.1,2.8-0.7,4c-3.5,4-5.6,8.8-7.8,13.6c-0.8,1.8,0.5,4.1-0.6,6c0.6,4-0.6,8-1.5,11.7c-0.9,3.7-2.3,7.9-6.5,9.8
					c-0.7,0.3-0.4,1.1-0.5,1.5c-0.8,2.8,2.8,6.3-1.3,8.5c-2.7,3.9-0.7,7.4,0.7,11c-0.7,1.1-0.8,2.3-0.8,3.6
					c-1.6,1.2-3.3,2.3-4.9,3.5c-1.8-0.1-3,1-4.2,2.1c-6.2,1.4-9,6.3-11.9,11.2c-3.8,3.9-8.4,6.7-13.3,9.1c-3-0.7-6.1-1.5-9,0.2
					c-0.2,0.1-0.8,0.2-0.9,0c-2.1-2.7-5.2-3.6-8.2-4.4c0-0.3-0.1-0.6-0.1-0.8c-0.4-1.5-1.9-2.2-2.7-3.4c-0.3-0.2-0.5-0.4-0.8-0.7
					c-0.2,0-0.4,0-0.6,0c-0.3-0.6-0.9-0.7-1.4-0.7l0,0c0-0.3,0-0.5,0-0.8c-4.2-4.8-5.3-10.2-4.5-16.6c0.8-6.6,4.3-11.3,8.9-15.1
					c3.4-2.9,7.9-4.5,12.5-4.7c3.3-0.2,5.1-2.7,3.3-5.5c-0.9-1.5-0.6-2.7-0.1-3.7c1.4-3,0.8-7,4.7-8.8c1-0.5,1.3-2.1,1.2-3.5
					C247.1,208.7,247.4,208.5,247.6,208.2z M269.5,201.9c3.4,0,7.2-3.7,7.4-7.1c0.1-2.3-2.1-4.2-4.1-3.2c-2.1,1.1-3.7,3.3-6.4,1.5
					c-0.1,0-0.6,0.4-0.7,0.6c-0.5,2.1-1.3,4.2-0.7,6.3C265.7,202.1,267.8,201.9,269.5,201.9z M281.1,218.7c0-1.7-0.8-3.6-2.4-3.2
					c-3.1,0.7-1.2,4-2.3,5.9c-0.3,0.6,0.2,1.5,1.1,1.3C279.6,222.2,281.2,221.2,281.1,218.7z"/>
				<path class="st15" d="M270,180.3c-0.1,0.1-0.1,0.2-0.2,0.3C269.9,180.5,269.9,180.4,270,180.3C270,180.3,270,180.3,270,180.3z"
					/>
				<path class="st6" d="M353,312.2c-0.2,0.1-0.4,0.1-0.5,0.1c0-0.8-0.1-1.7,0.9-2C353.2,310.9,353.1,311.6,353,312.2z"/>
				<path class="st6" d="M350.4,316.6c0,0.6-0.2,1.1-0.7,1.4C349.6,317.4,349.8,316.8,350.4,316.6z"/>
				<path class="st13" d="M156,316.6c-0.1,0.3-0.2,0.6-0.3,0.9C155.1,317,155.7,316.8,156,316.6C156,316.6,156,316.6,156,316.6z"/>
				<path class="st13" d="M223.2,196.4c2.1-0.2,3.1-1.2,2.2-3.2c-0.7-1.5,0-3.8-2.2-4.6c-1-1.6-0.7-3.3-0.7-5c0-1.1,0.3-2.4-1.3-2.8
					c-0.2-1.2-0.1-2.4-2.2-2.2c-2.8,0.2-4.9-1.3-6.4-3.9c-1.2-2.2-1.7-4.7-3.7-6.5c-1.1-1-0.6-2.4,1.1-2.8c2.6-0.6,4.6-2.7,7.8-2.3
					c1.9,0.3,3.3-2.5,6-1.8c3.1,0.8,4.8,2.7,3.8,5.6c-0.8,2.3-0.8,3.8,1.2,5.8c2.7,2.6,0.6,6.4,1.2,9.6c0.4,2.1,0.6,4.1,2.8,5.1
					c0.2,6.7,0.9,13.3,3.6,19.5c-0.6,2.3-2,1.2-3.3,0.9c-0.6-0.1-1.6-0.2-1.1,0.9c0.9,2.1,1.6,4.1,0.4,7c2-1.2,3.4-2.1,4.7-2.9
					c0.7-0.4,1.3-1.2,2.1-0.4c1,0.8,0.4,2.1-0.1,2.5c-2,1.4-2.6,4.5-5.5,4.7c-1.9-2.2-2.9-5.3-6.5-5.6c-0.4,0-1.1-0.6-1-0.7
					c0.5-2.9-2.4-4.8-2.4-7.3C223.7,202.6,221.5,199.6,223.2,196.4z"/>
				<path class="st8" d="M202.9,192.9c0.8,2.9-1.6,3.3-3.3,4.1c-4.5,2.2-7.1,6.1-9.2,10.2c-1,2,0.1,4.1,3,4.6
					c2.1,0.4,4.7,0.2,5.8,2.7c-1.8-0.5-3.6-1-5.4-1.3c-5.2-1.1-6.6-4.4-3.8-9c0.3-0.5,0.6-1,0.8-1.5
					C194.1,198.4,198.7,195.9,202.9,192.9z"/>
				<path class="st1" d="M345.5,319.3c0.2-0.2,0.5-0.5,0.7-0.7C345.9,318.9,345.7,319.1,345.5,319.3z"/>
				<path class="st6" d="M174.8,344.6c1.7,0.3,3.5,0.5,3.5,2.9c-1.5,0.3-2.1-1.1-3.2-1.7C175,345.4,174.9,345,174.8,344.6z"/>
				<path class="st7" d="M309.8,173.3c0-0.3,0.1-0.5,0.1-0.8c0.2,0,0.4,0,0.6,0.1C310.3,172.9,310,173.1,309.8,173.3z"/>
				<path class="st7" d="M309.9,172.5c-0.3-0.2-0.5-0.4-0.8-0.6c0.2,0,0.5,0,0.7,0C309.9,172.1,309.9,172.3,309.9,172.5z"/>
				<path class="st7" d="M309.1,171.9c-0.8,0-1.7,0.2-2-0.9c0.6,0.1,1.3,0.2,1.9,0.3C309.1,171.5,309.1,171.7,309.1,171.9z"/>
				<path class="st7" d="M295.3,164.8c-1.2,0-2.6,0.6-3-1.3C293.4,163.6,294.4,164,295.3,164.8z"/>
				<path class="st13" d="M244.8,277.4c4.9-2.4,9.5-5.2,13.3-9.1c4.7-1.4,8.3-4.7,12.5-6.8c1.6-0.8,1.9-2,2-3.3
					c0-1.9-2.1,0.3-2.6-1.1c1.2-1.1,2.4-2.2,4.2-2.1c0.2,0.5,0.5,0.9,0.7,1.4c-0.7,0.1-1.4,0.5-1.3,1.3c0.3,2.7-0.7,5.1-1.5,7.6
					c-0.4,0.1-0.8,0.2-1.1,0.4c-1.5-0.1-2.3,0.6-2.3,2.1c0,0.2-0.1,0.4-0.2,0.6c-1.9,1.1-1.8,2.3-0.1,3.5c0.1,0.4,0.2,0.8,0.3,1.3
					c0.8,2.2,0.5,4.7,2.5,6.4c0.1,0.5,0.1,0.9,0.2,1.4c-1,1.6,0,2.3,1.4,2.8c0.1,0.2,0.1,0.4,0.1,0.6c0.2,1.3-0.6,2.1-1.5,2.9
					c-4.5,1.7-9.1,3.3-12.6,7c-2.2,0.1-1.2,3.5-3.5,3.5c-0.4-1.8,1.1-4.4-2.1-4.9l0,0c0.1-2.4-1.1-3.6-3.5-3.5l0,0
					c0-1.4-1.1-1.4-2.1-1.4c-0.5-0.2-0.9-0.5-1.4-0.7c-1.1-2.6-2.6-3.4-5.9-3.3l-0.2,0c0,0-0.2-0.1-0.2-0.1
					c-0.5-0.7-0.9-1.5-1.4-2.2C240.2,279.7,243.3,279.8,244.8,277.4z"/>
				<path class="st7" d="M271.4,287.2c0.8-0.8,1.6-1.6,1.5-2.9c0.3,0.1,0.8,0.1,1,0.4c4.1,5.1,8.8,4.8,13.9,1.8
					c1.4-0.8,3.1-1.1,4.3-0.3c3.3,2.3,6.7,4.4,7.5,9c0.5,2.8-0.2,5.7,0.9,8.2c3.1,7.1,2.3,15.6,7.7,21.9c1,1.1,1.1,3,1.7,4.5
					c-1.4-0.8-2.7-1.1-3.5,0.7l0,0c-0.2,0-0.5,0-0.7,0l0,0c-0.3-0.6-0.8-0.7-1.4-0.7c-0.2-0.7-0.5-1.4-0.7-2.1
					c0.3-0.2,0.8-0.6,0.8-0.6c-2.2-3.4-2.1-7.7-4.2-11.3c-1.7-2.9-2.9-6-5.9-7.9c-0.4-0.2-0.3-1.3-0.4-1.9c0.5-0.1,1-0.2,1.5-0.3
					c-0.1-0.1-0.1-0.2-0.2-0.3c-0.6-0.2-1,0-1.3,0.5c-3.7-2.4-7.3-4.9-7.9-9.8c-0.1-0.5-1.2-0.9-1.8-1.4c0-1-0.5-1.7-1.4-2.1
					c0-1,0-2-1.4-2.1C277.7,290,275,287.4,271.4,287.2z"/>
				<path class="st14" d="M255.3,297.7c2.3,0,1.3-3.4,3.5-3.5c-0.8,3.6-1.6,7.1-2.6,10.6c-0.6,2.3-1.3,5-2.3,6.8
					c-1.1,2-2.6,4.2-4.1,6.1c-1.4,1.9-3.1,3.5-3.5,6.2c-0.3,2-2.4,3.5-3.7,4.9c-2.9,3-4.6,6.5-6.3,10c-0.6,1.3-1.5,1.6-2.8,1.6
					c-1.4-5.1,1.4-8.4,5.1-11.3c1.3-1,1.8-2.1,0.5-3.4c0.6-5.2,2.7-9.1,8.2-10.9c1.8-0.6,3.4-2.5,3-5c-0.4-3.1,0.6-5.6,2.9-7.8
					C254.4,300.9,255.5,299.5,255.3,297.7z"/>
				<path class="st1" d="M293.7,306.1c0.1,0.7,0,1.7,0.4,1.9c3,1.9,4.2,5,5.9,7.9c2.1,3.6,2.1,7.8,4.2,11.3c0,0-0.5,0.4-0.8,0.6
					c-2.5,0.2-3.2-1.5-3.5-3.4c-0.7-4.6-2.5-8.3-5.1-12.3c-3.3-5-8.1-8.1-11.6-12.5c-1.4-1.8-0.7-3.2,0.6-4.5
					c0.6,0.5,1.8,0.9,1.8,1.4C286.5,301.2,290,303.7,293.7,306.1L293.7,306.1z"/>
				<path class="st1" d="M304.2,329.8c0.6,0,1.1,0.1,1.4,0.7c-0.7,3.6,0.7,6.5,3.1,9c2.7,2.8,6.1,2.5,8.8-0.6
					c3.1-0.5,5.2-2.8,7.6-4.5c1.1-0.8,2.2-1.7,3.6-1.8c-3.1,7-8.9,9.9-16.1,10.3c-1.8,0.1-3.6-1.3-5.5-2c-2.3-0.8-1.6-2.8-2.1-4.5
					C304.2,334.2,302.6,332.3,304.2,329.8z"/>
				<path class="st14" d="M235.7,353.6c-1.5,0-2.9,0-4.4,0c0-0.1,0.1-0.3,0.1-0.4c0.1-1-0.2-1.7-1.4-1.7l0,0
					c0.1-1.3,0.8-2.1,2.2-2.2C235.1,349.3,235.5,351.4,235.7,353.6z"/>
				<path class="st14" d="M233.6,342.4c-2.3,1.4-4.4,3.3-7.3,3.7c1.9-2.4,4.5-3.9,7.3-5.1C233.6,341.5,233.6,341.9,233.6,342.4z"/>
				<path class="st1" d="M297.1,359.9c1.2,0,1.6,0.7,1.4,1.6c-0.2,1.2-1.3,1.8-2.2,2c-1.1,0.2-1.2-0.9-1.1-1.7
					C295.2,360.6,296,360,297.1,359.9z"/>
				<path class="st14" d="M232.9,348.7c-0.5-1.8-2.1-0.8-3.3-1.1c1.2-1.9,2.7-2.5,4.7-2.4C234.3,346.6,234.6,348,232.9,348.7z"/>
				<path class="st1" d="M276.9,367.6c-0.1,1.2-0.8,1.4-1.7,1.3c-0.7-0.1-1-0.5-0.8-1.2c0.2-0.9,1-1.2,1.8-1.2
					C276.9,366.5,276.8,367.2,276.9,367.6z"/>
				<path class="st1" d="M318.6,346.9c-0.2,0.6-0.6,1-1.2,1c-0.7,0.1-1.1-0.3-1.1-0.9c0-0.7,0.5-0.9,1.2-1
					C318,346,318.5,346.1,318.6,346.9z"/>
				<path class="st1" d="M301,359.5c0.3-0.2,0.6-0.6,0.9-0.7c0.5-0.1,0.8,0.3,0.8,0.8c0,0.5-0.4,0.8-0.9,0.9
					C301.3,360.5,301,360.2,301,359.5z"/>
				<path class="st1" d="M281.1,290.7c1.4,0,1.4,1.1,1.4,2.1C281.1,292.7,281.1,291.7,281.1,290.7z"/>
				<path class="st14" d="M234.3,343.1c0-0.2,0-0.5,0-0.7C234.8,342.6,234.8,342.9,234.3,343.1z"/>
				<path class="st2" d="M223.1,334.7c1.6-4.3,3-8.7,4.9-12.8c1.9-4,2.2-8.2,1.9-12.5c-0.1-1.3-0.3-2.4,0.9-3
					c3.5-1.7,4.2-5.8,7.8-7.9c2.2-1.3,3.7-5.5,3.4-9.1c-0.1-0.8,0-1.6,0-2.4c3.5,0.7,5.9,3.3,8.4,5.4c2.9,2.4,2.8,5.5-0.2,7.9
					c-1.6,1.3-2.4,3.1-2.4,4.8c-0.1,4-1.1,7.3-5.3,8.7c-0.3,0.1-0.3,0.8-0.5,1.2c0,0,0,0,0,0c-2.9,0-4.6,1.4-4.9,4.3
					c-0.1,1.2-0.7,2.1-1.4,3.1c-2,2.6-3.8,5.4-5.7,8.1c-0.2,0.5-0.5,0.9-0.7,1.4C227.4,333,225.6,334.7,223.1,334.7z"/>
				<path class="st6" d="M200.1,263.4c0.3,0.3,0.6,0.6,0.8,0.9c0,0.4-0.1,0.7-0.1,1.1c0.2,0.3,0.5,0.5,0.7,0.8l0,0
					c0.5,2,1.6,3.4,3.4,4.2c0.5,1.2,1.8,1.4,2.7,2c1.1-0.1,2.4,0.6,2.9-1c0.5-0.1,0.9-0.1,1.4-0.2c0.5,0.8,0.8,1.6,0.7,2.5
					c-1.5,0.6-1.4,3-3.5,2.9c-1.3-1.1-1.3-0.2-1.3,0.8c0,0,0,0,0,0c-1.5-0.2-3-0.5-4.4-0.7c0,0,0,0,0,0c-0.9-2.1-0.3-4.9-2.7-6.4
					c-0.2-0.2-0.5-0.5-0.7-0.7c0.4-2.3-2.1-3.9-1.4-6.3C199.1,263.4,199.6,263.4,200.1,263.4z"/>
				<path class="st9" d="M242,315.2c0.2-0.4,0.2-1.1,0.5-1.2c4.2-1.4,5.2-4.7,5.3-8.7c0.1-1.7,0.8-3.5,2.4-4.8
					c3-2.4,3.1-5.5,0.2-7.9c-2.6-2.1-4.9-4.7-8.4-5.4c0-0.5,0-1,0-1.5c1.7-0.3,2.6,1.4,4.2,1.5c0.5,0.2,0.9,0.5,1.4,0.7
					c0.4,0.9,1.1,1.4,2.1,1.4c0,0,0,0,0,0c0.9,1.4,2.1,2.5,3.5,3.5c0,0,0,0,0,0c1.3,4,0.9,7.4-2.7,10.1c-1.2,0.9-1.3,2.6-1.4,4.1
					C248.8,312.5,247.5,314,242,315.2z"/>
				<path class="st9" d="M223.1,334.7c2.5-0.1,4.2-1.8,6.3-2.8c0,0.9,0,1.8-0.1,2.8c0,0,0,0,0,0c-4,0.2-6.3,2.4-7,6.3c0,0,0,0,0,0
					c-1.9,1.4-1.9,2.8,0.1,4.2c0,0.5-0.1,0.9-0.1,1.4c-0.5,0.3-0.7,0.8-0.7,1.3c0,0,0,0,0,0c-1.1,0-1.7,1-2.5,1.5
					c-2.3-1.4-1.4-3.3-0.8-5.1C219.7,341,220.8,337.6,223.1,334.7z"/>
				<path class="st8" d="M212.6,273.8c0.1-0.9-0.1-1.8-0.7-2.5c3.1-1.7,6.1-2.1,9.4-0.5c1.5,0.8,3,2.3,5.1,1.6
					c0,0.3,0.1,0.6,0.1,0.8c-1.9,1.3-3.4,0.3-5-0.7c-0.8-0.5-1.9-1.4-2.5,0.2c-0.5,1.3,0.5,1.6,1.6,2c2.4,0.9,5,1.8,5.9,4.7
					c-1.4,0.3-2.2-1.3-3.5-1.3c-0.4-0.9-1.1-1.4-2-1.5c-0.9-1.4-2.2-1.4-3.6-1.1c-0.3-0.3-0.5-0.6-0.8-0.9c0.1-1,0.6-2.3-0.8-2.7
					c-1.3-0.3-2,0.9-2.6,1.9l-0.3,0L212.6,273.8z"/>
				<path class="st8" d="M219.2,349.4c0.8-0.5,1.4-1.5,2.5-1.5c-1.5,3.8-2.1,7.6-0.2,11.5c0.5,1.1,0.7,2.3-1.1,2.6
					C219.6,357.8,218,353.8,219.2,349.4z"/>
				<path class="st4" d="M184.7,272.5c-1.4-0.1-2.2-1-2.8-2.1c2-1.3,3.3-3,2.8-5.6c0.4,0,0.9,0,1.3,0c0.2,0.2,0.5,0.5,0.7,0.7
					c0.1,0.4,0.1,0.9,0.2,1.3C186.7,269,185.7,270.8,184.7,272.5z"/>
				<path class="st8" d="M186.9,266.9c-0.1-0.4-0.1-0.9-0.2-1.3c3.4,1.5,4.7-0.4,5.7-3.3c0.9-2.8,1.5-2.9,3.5-1l-0.1,0.1
					c-2.5-0.4-2.2,1.9-2.9,3.1C191.6,267.3,189.9,268.7,186.9,266.9z"/>
				<path class="st8" d="M238.5,281.6c0.5,0.7,0.9,1.5,1.4,2.2c-1.5,0.1-2.4-1-3.6-1.5c-2.2-2.8-5.7-1.6-8.4-2.8
					c1.1-1.2,2.6-0.9,3.8-0.5C234.1,279.8,236.3,280.8,238.5,281.6z"/>
				<path class="st9" d="M228,279.6c2.7,1.2,6.2,0,8.4,2.8c-3.8-0.7-7.6-1.5-11.3-2.1c-1.2-0.2-1.8-0.9-1.8-2.1
					c1.3-0.1,2.1,1.6,3.5,1.3C227.1,279.5,227.5,279.5,228,279.6z"/>
				<path class="st8" d="M198.7,263.4c-0.7,2.4,1.9,4,1.4,6.3c-0.5-0.2-0.9-0.5-1.4-0.7c-0.8-2.6-1.5-5.2-2.9-7.5
					c0,0,0.1-0.1,0.1-0.1C197.3,261.4,198.1,262.3,198.7,263.4z"/>
				<path class="st9" d="M198.7,269c0.5,0.2,0.9,0.5,1.4,0.7c0.2,0.2,0.5,0.5,0.7,0.7c-0.2,2.2,1,4.1,1.5,6.2
					C198.9,275.1,200,271.5,198.7,269z"/>
				<path class="st8" d="M246.2,287.2c-1.5-0.1-2.5-1.8-4.2-1.5c-0.6-0.6-1.1-1.2-1.7-1.9C243.6,283.8,245.1,284.6,246.2,287.2z"/>
				<path class="st8" d="M202.2,276.7c-0.4-2.1-1.7-4-1.5-6.2c2.4,1.5,1.7,4.3,2.7,6.4C203,276.8,202.6,276.7,202.2,276.7z"/>
				<path class="st4" d="M190.3,273.2c-0.7,0-1.4,0-2.1,0c-0.4-3.8,2.1-2.4,4-2.4C191.9,272.1,190,271.8,190.3,273.2z"/>
				<path class="st9" d="M213.3,273.9c0.6-1,1.3-2.2,2.6-1.9c1.3,0.3,0.8,1.7,0.8,2.7C215.5,274.4,214.4,274.1,213.3,273.9z"/>
				<path class="st8" d="M203.4,276.9c1.5,0.2,3,0.5,4.4,0.7C206,279.6,204.5,279.9,203.4,276.9z"/>
				<path class="st9" d="M217.5,275.6c1.4-0.3,2.7-0.3,3.6,1.1C219.8,276.5,218.2,277.5,217.5,275.6z"/>
				<path class="st8" d="M216.9,362.6c-1.4-0.1-2.7-0.3-2.8-2.1C215.3,360.8,216.6,361.1,216.9,362.6z"/>
				<path class="st8" d="M207.9,277.5c0-0.9,0-1.9,1.3-0.8C208.9,277.3,208.5,277.5,207.9,277.5z"/>
				<path class="st9" d="M209.9,306.5c-0.9,0.2-1.4-0.3-1.4-1.2C209.3,305.4,209.8,305.7,209.9,306.5z"/>
				<path class="st8" d="M218.9,363.4c-0.8,0-1.6,0.1-2.1-0.8c0.7,0,1.4,0.1,2.1,0.1C218.9,362.9,218.9,363.2,218.9,363.4z"/>
				<path class="st9" d="M207,303.9c-0.6-0.2-0.8-0.7-1-1.2C206.9,302.8,207,303.3,207,303.9z"/>
				<path class="st14" d="M174.9,307.5c-0.1,0.5-0.1,1.1-0.8,1.1c-0.1,0-0.2-0.1-0.2-0.2C173.8,307.5,174.4,307.6,174.9,307.5
					C174.9,307.5,174.9,307.5,174.9,307.5z"/>
				<path class="st1" d="M185.4,336.1c-0.2,0.2-0.5,0.3-0.7,0.5C184.4,335.8,185.1,336.3,185.4,336.1
					C185.4,336.1,185.4,336.1,185.4,336.1z"/>
				<path class="st6" d="M156.7,316.5c0.1-0.1,0.1-0.2,0.2-0.3C156.8,316.4,156.8,316.5,156.7,316.5
					C156.7,316.6,156.7,316.5,156.7,316.5z"/>
				<path class="st8" d="M229.4,334.7c0-0.9,0-1.8,0.1-2.8c0.2-0.5,0.5-0.9,0.7-1.4c4.8-1.1,6.2-5.8,8-9.1c1.2-2.2,1.9-4.6,3.9-6.3
					c0,0,0,0,0,0c5.4-1.2,6.8-2.7,7-8.1c0.1-1.6,0.2-3.2,1.4-4.1c3.6-2.7,4-6.2,2.7-10.1c3.3,0.5,1.7,3.1,2.1,4.9
					c0.2,1.8-0.9,3.2-2,4.3c-2.3,2.2-3.3,4.7-2.9,7.8c0.3,2.5-1.2,4.4-3,5c-5.5,1.8-7.6,5.7-8.2,10.9c-2.1-0.2-3.4,1.1-4,2.7
					C234.1,331.3,230.7,332,229.4,334.7z"/>
				<path class="st9" d="M231.4,353.2c-0.1,0.1-0.1,0.2-0.1,0.4c-0.7,0.8-1.5,1.6-2.6,1.4c-1.1-0.2-2.9,1.8-3.3-0.7
					c-0.2-1.8,1.2-2.6,2.9-2.7c0.6,0,1.2,0,1.7,0c0,0,0,0,0,0C230.1,352.5,230.6,353,231.4,353.2z"/>
				<path class="st8" d="M222.4,341c0.7-3.9,3-6.1,7-6.3C227,336.8,224.7,338.9,222.4,341z"/>
				<path class="st8" d="M222.5,345.2c-2-1.4-2-2.8-0.1-4.2C221.9,342.4,223.5,343.8,222.5,345.2z"/>
				<path class="st8" d="M221.6,347.9c0-0.6,0.2-1,0.7-1.3C223.5,347.8,222.6,347.8,221.6,347.9z"/>
				<path class="st4" d="M309.8,329.8c-0.5-1.5-0.7-3.4-1.7-4.5c-5.5-6.3-4.7-14.8-7.7-21.9c-1.1-2.6-0.5-5.5-0.9-8.2
					c-0.8-4.6-4.2-6.8-7.5-9c-1.2-0.8-3-0.6-4.3,0.3c-5.1,3.1-9.8,3.4-13.9-1.8c-0.2-0.2-0.6-0.2-1-0.4c0-0.2-0.1-0.4-0.1-0.6
					c-0.1-1.1-0.5-2.1-1.4-2.8c-0.1-0.5-0.1-0.9-0.2-1.4c0.3-2.6,1-5.3-2.5-6.4c-0.1-0.4-0.2-0.8-0.3-1.3c0-1.2,0.1-2.3,0.1-3.5
					c0.1-0.2,0.2-0.4,0.2-0.6c1.2-0.2,1.9-1,2.3-2.1c0.4-0.1,0.8-0.2,1.1-0.4c1.1-0.2,1.6-1,2.2-1.9c0.5-0.5,0.9-0.9,1.4-1.4
					c0,1.3,0.1,3,1.5,3.1c2.6,0.2,5,1.3,7.7,1.2c6.9-0.4,13.8-0.5,20.6,0.6c4.5,0.7,9.2,1.5,12.7,4.3c3.8,3.1,6.9,6.8,6.6,12.5
					c-0.4,6.3-3.5,11-7.5,15.4c-3,3.2-3.4,10-0.8,11.9c3.1,2.3,7.7,2.4,9.8,6.4c0.1,0.2,1.3-0.1,2-0.2c0.2,1.2-1.5,2.3,0,3.5
					c-0.4,1.2-1.7,1.9-1.6,3.3c0,0,0,0,0,0c-1.2,0-2.1,0.4-2.7,1.5c0,0,0,0,0,0c-0.6,0-1.1,0.2-1.4,0.7c-0.6,0-1,0.3-1.3,0.8
					c-1.5,0.6-2.2,1.7-2.3,3.3c0,0,0,0,0,0c-0.2,0-0.4,0-0.6,0.1c-0.7,0.5-1.4,1-2.1,1.5c-1.9-0.1-3.9,0.5-5.5-0.9
					C310.3,330.7,310.1,330.3,309.8,329.8z"/>
				<path class="st7" d="M310.6,331.1c1.7,1.4,3.7,0.7,5.5,0.9c0.5,1.4,1.4,2.3,3.9,1.1c-1.8,2.4-3.6,2.8-5,3.9
					c-0.8,0.6-2.8,0.7-1.9,2.2c0.7,1.2,1.8-0.2,2.5-0.8c1-0.8,1.6-0.9,1.8,0.6c-2.7,3.1-6,3.4-8.8,0.6c-2.4-2.5-3.8-5.4-3.1-9
					c0,0,0,0,0,0c0.2,0.4,0.5,0.4,0.7,0c0,0,0,0,0,0C307.8,330.1,308.8,333.2,310.6,331.1z M315.3,334.5c-0.1-1.3-1.1-1.3-2-1.2
					c-1.1,0.1-2.6-0.5-2.7,1.3c-0.1,1.3,1,1.9,2,1.9C313.8,336.5,314.9,335.9,315.3,334.5z"/>
				<path class="st8" d="M326.4,324.1c-0.1-1.4,1.1-2.2,1.6-3.3c1.6-1.9,2-4.3,2.1-6.7c0.1-1.1-0.6-2.7,1.2-3.1
					c0.5,3.9-0.3,7.4-2,10.9C328.8,323.1,328.2,324.3,326.4,324.1z"/>
				<path class="st9" d="M337.7,317.3c0.4-2.1-0.7-4.4,0.7-6.4c1,0.7,0.6,1.5,0.3,2.4c-0.8,2.8,0.3,4.2,3.2,3.9c0,0.5,0,0.9,0,1.4
					c0,0,0,0,0,0c-1.2,0-2.3,0-3.5,0.1C338.2,318.2,337.9,317.7,337.7,317.3z"/>
				<path class="st8" d="M331.4,310.9c0.4-1.9,1.6-2.8,3.6-2.7C334.4,309.9,333.1,310.6,331.4,310.9z"/>
				<path class="st8" d="M318.8,330.4c0.1-1.6,0.8-2.7,2.3-3.3C320.9,328.7,321.3,330.5,318.8,330.4z"/>
				<path class="st8" d="M338.4,318.7c1.2,0,2.3,0,3.5-0.1c0,0.9-0.5,1.4-1.4,1.4C339.6,320,338.5,320.1,338.4,318.7z"/>
				<path class="st8" d="M323.7,325.6c0.6-1.1,1.6-1.5,2.7-1.5C326.1,325.6,325,325.7,323.7,325.6z"/>
				<path class="st8" d="M322.3,326.3c0.3-0.5,0.8-0.7,1.4-0.7C323.5,326.2,322.9,326.3,322.3,326.3z"/>
				<path class="st8" d="M318.2,330.5c0.2-0.1,0.4-0.1,0.6-0.1c-0.1,0.2-0.2,0.3-0.2,0.5C318.4,330.7,318.3,330.6,318.2,330.5z"/>
				<path class="st10" d="M186,264.8c-0.4,0-0.9,0-1.3,0c-0.4-2.5-1.4-2.2-2.8-0.7c-0.5-0.2-0.9-0.5-1.4-0.7
					c1.4-4.9,6.7-8.2,13.3-8.4c0,0.2,0,0.5,0,0.7c-1.6,0.7-3.1,1.6-4.7,1.9c-2.6,0.5-3.4,1.9-2.9,4.4
					C186.1,263,186.1,263.9,186,264.8z"/>
				<path class="st4" d="M180.5,263.4c0.5,0.2,0.9,0.5,1.4,0.7c0.1,2.5-1.7,2.7-3.5,2.8c0,0,0,0,0,0c0.1-2-1.2-3.7-1.4-5.6
					C178.6,261.3,178.7,263.7,180.5,263.4z"/>
				<path class="st2" d="M177.7,222.9c-0.1,0.1-0.1,0.2-0.2,0.3C177.6,223.1,177.6,223,177.7,222.9L177.7,222.9z"/>
				<path class="st14" d="M233.6,219.4c3-0.2,3.5-3.3,5.5-4.7c0.5-0.3,1.1-1.6,0.1-2.5c-0.9-0.7-1.5,0-2.1,0.4
					c-1.3,0.9-2.7,1.7-4.7,2.9c1.2-2.8,0.5-4.9-0.4-7c-0.5-1.2,0.4-1.1,1.1-0.9c1.3,0.3,2.7,1.4,3.3-0.9c2.6,2.6,5.8,2.6,9.1,2.1
					c0.5,0,0.9,0,1.4,0c0.1,1.4-0.2,3-1.2,3.5c-3.9,1.8-3.3,5.8-4.7,8.8c-0.5,1-0.8,2.3,0.1,3.7c1.8,2.8,0,5.4-3.3,5.5
					c-4.6,0.3-9.1,1.8-12.5,4.7c-4.6,3.9-8,8.6-8.9,15.1c-0.8,6.4,0.3,11.8,4.5,16.6c-1-0.2-2-0.5-3-0.7c-2.8-0.5-5.1-0.8-4.9-4.8
					c0.1-3.1-3.2-4.1-5.9-2.3c-0.5,0.4-1,0.8-1.4,0.3c-1-0.9-1.1-2,0-3c2-0.3,3.9-1,5.2-2.4c1.2-1.2,4.1-1.5,3.3-3.7
					c-0.7-1.8-2.9,0.4-4.4-0.2c1.1-3.4,2-6.8,5.8-8.4c1.5-0.6,2.7-2.1,2.6-4.2c-0.1-1.5,1.2-2.1,2.2-2.9c1.4-1.1,3.3-1.9,3.2-4.2
					c0,0,0.1,0,0.1,0c0.7-0.2,0.8-0.8,0.8-1.4c0,0,0,0,0,0c2.1-0.3,3.9-1.8,6.1-1.4c0.9,0.2,1.5-0.4,1.6-1.3
					c0.2-0.1,0.4-0.1,0.6-0.1c2.1-0.3,2.3-1.6,1.9-3.3C234.4,221.8,234,220.6,233.6,219.4z"/>
				<path class="st9" d="M226.5,272.4c-2.1,0.7-3.6-0.8-5.1-1.6c-3.3-1.7-6.4-1.3-9.4,0.5c-0.5,0.1-0.9,0.1-1.4,0.2
					c-1.2-0.3-2.1,0.2-2.9,1c-1-0.6-2.2-0.8-2.7-2c0.5-2.7-1.5-3.5-3.4-4.2c0,0,0,0,0,0c-0.2-0.3-0.5-0.5-0.7-0.8
					c0-0.4,0.1-0.7,0.1-1.1c1.6-0.8,3.1-2,5.2-1.7c1.2,0.2,2-0.4,2.3-1.6c0.2-0.8,0.1-1.8,1.3-1.7c1.1,0,1.8,0.9,1.7,1.9
					c-0.3,7.5,5.7,5.4,9.7,6.5c0,0,0,0,0,0c0.3,0.6,0.9,0.7,1.4,0.7c0.2,0,0.4,0.1,0.6,0c0.3,0.2,0.5,0.4,0.8,0.7
					C224.6,270.3,226.1,270.9,226.5,272.4z"/>
				<path class="st13" d="M186,264.8c0.1-0.9,0.1-1.9,0.2-2.8c1.8-1.3,3.6-2.7,5.6-3.8c2.4-1.4,4.9-2.2,6.8,1.1
					c0.2,0.4,1,0.5,1.5,0.7c0,1.1,0,2.3,0.1,3.4c-0.5,0-0.9,0-1.4,0c-0.6-1.1-1.4-2-2.7-2.1c-2-1.9-2.5-1.8-3.5,1
					c-1,2.9-2.3,4.7-5.7,3.3C186.5,265.3,186.3,265.1,186,264.8z"/>
				<path class="st13" d="M209.8,250.2c1.5,0.6,3.7-1.6,4.4,0.2c0.8,2.2-2.1,2.5-3.3,3.7c-1.3,1.4-3.2,2.1-5.2,2.4
					C204.2,253.3,204.5,252.8,209.8,250.2z"/>
				<path class="st8" d="M200,215.2c1.7,0.2,1.3,1.5,1.4,2.6c0.1,0.7-0.3,1.9,0.8,1.9c1.2,0,1.1-1.1,1.3-2c0.2-1.5-0.6-3.2,0.7-4.6
					c1.2,2.3,0.9,4.7,0,7c-0.4,0.9-1,2-2.2,1.9c-1.3-0.2-1.8-1.3-1.9-2.5C200.1,218,200.1,216.6,200,215.2z"/>
				<path class="st8" d="M232.2,226.4c-0.1,1-0.7,1.5-1.6,1.3c-2.3-0.4-4.1,1.1-6.1,1.4C226.1,225.5,229.6,227.3,232.2,226.4z"/>
				<path class="st8" d="M224.5,229.2c0,0.6-0.1,1.1-0.8,1.4C223.7,229.9,223.9,229.4,224.5,229.2z"/>
				<path class="st7" d="M279.1,236.9c4.1-2.2,0.4-5.7,1.3-8.5c0.1-0.5-0.2-1.2,0.5-1.5c4.2-1.9,5.6-6.1,6.5-9.8
					c0.9-3.7,2.1-7.6,1.5-11.7c2.4,0.8,3.5-1.8,5.5-2.1c-0.3,1.8-0.9,3.4,0.2,5.3c2,3.5,2.8,3.8,5.6,0.8c0.9,0.5,1.8,1.1,2.7,1.6
					c0,0,0,0,0,0c0.7,1.5,1.4,3.1,2.1,4.6c-0.4,0.1-0.9,0.1-1.3,0.2c-1.1-0.6-1.8-2.2-3.4-1.6c-1,0.4-0.9,1.5-0.6,2.4
					c-0.1,0.4-0.2,0.9-0.3,1.3c-0.6,0.3-0.7,0.8-0.7,1.4c-0.3,0.4-0.5,0.8-0.8,1.3c-0.3,0.2-0.5,0.5-0.8,0.7
					c-0.7,0.1-1.5,0.1-1.9,0.8c-1.6,0.4-3.2,0.7-3.6,2.7l0,0c-2,2-2,6.3-6.4,5.4c-0.1,0-0.4,0.6-0.4,0.8
					C285.1,235.3,282.4,236.5,279.1,236.9z"/>
				<path class="st9" d="M279.1,236.9c3.4-0.4,6-1.6,5.7-5.8c0-0.3,0.3-0.8,0.4-0.8c4.4,0.9,4.5-3.4,6.4-5.4c0,0.7,0,1.4,0.1,2.2
					c-0.8,2.6-2.2,4.6-4.9,5.6c-1.6,0.6-1.4,2.1-1.4,3.5c-1.2,0.6-2.5,1.2-3.7,1.9c-2.1,1.1-2.6,6.3-0.7,7.6
					c0.5,0.4,1.4,0.3,1.6-0.2c0.7-2.6,3.9-2.8,5-5.1c2.1-0.2,2.9-2.1,4.3-3.2c3.6-2.9,7.7-2.3,11.7-1.7c0.1,0.9,0.5,1.4,1.4,1.4
					c0.7,0.9,1.7,1.6,2.2,2.6c1.2,2.6,2.4,4.8,6,3.8c0.6-0.2,0.8,0.6,1,1.2c0,0-0.2,0.2-0.2,0.2c-1.2,0.1-2.9-0.9-3.4,1.3
					c-0.5,0-0.9,0.1-1.4,0.1c-0.2-0.1-0.4-0.1-0.7-0.1c-0.7-1.2-1.5-2.3-2-3.5c-2.3-5.8-7.3-7.5-12.4-4.1c-2.7,1.7-4.8,4.3-8.1,5.1
					c-1.2,0.3-1.3,1.5-1.3,2.5l0,0c-0.3,0.2-0.5,0.5-0.8,0.7c-1.2,0.9-2.4,1.8-4.1,1.3C278.4,244.4,276.4,240.8,279.1,236.9z"/>
				<path class="st8" d="M337,269.8c2.3,2.6,2.9,3,7.5,3.9c-0.4,0.9-0.8,1.9-1.2,2.8c-0.2,0.1-0.4,0.1-0.6,0.2
					c-3.4-1.3-5.1-5.1-9-5.6l0,0c-0.3-0.7-0.8-1.1-1.5-1.3l0,0c-0.3-1-1.1-1.4-2-1.5c-0.7-0.7-1.4-1.4-2.1-2.1
					c-0.2-0.2-0.5-0.5-0.7-0.7l0,0c-0.4-1.5-1.4-3.2-1.1-4.6c0.4-1.9-1.3-5.4,3-5c0,0,0,0,0,0c0.3,5.5,2.7,9.9,7.1,13.3
					C336.5,269.3,336.8,269.6,337,269.8z"/>
				<path class="st5" d="M287.5,240.4c-1.1,2.3-4.2,2.4-5,5.1c-0.1,0.5-1,0.5-1.6,0.2c-1.9-1.3-1.4-6.5,0.7-7.6
					c1.2-0.6,2.5-1.2,3.7-1.9c2.2,0,4.2,0.1,1.5,2.8C285.8,240,286.6,240.2,287.5,240.4z"/>
				<path class="st9" d="M329.2,255.9c-4.3-0.4-2.6,3.2-3,5c-0.3,1.4,0.7,3,1.1,4.6c-1,0.1-1.6,0.1-1.9-1.2
					c-0.4-2.1-0.5-4.2-0.1-6.1c0.5-2.3-0.1-2.8-2.2-2c-0.6,0.2-1.1,0.2-1.5-0.3c0.5-0.5,0.9-0.9,1.4-1.4c0.9-0.1,1.6-0.5,2.1-1.3
					c0.9-0.3,1.7-0.6,2.6-1C327.8,253.5,329.6,254.3,329.2,255.9z"/>
				<path class="st9" d="M336.3,269.1c-4.3-3.4-6.7-7.8-7.1-13.3c2.3,2.7,2.4,6.8,5.3,9.1C336,266.1,336.6,267.4,336.3,269.1z"/>
				<path class="st8" d="M321.7,240.4c0.2,0.1,0.3,0.1,0.5,0.1c0.3,0.4,0.6,0.9,0.9,1.3c0,1,0.9,1.4,1.4,2.1
					c0.3,0.9,0.5,1.8,0.8,2.7c-1.5,0.2-1.6-1.5-2.6-2c-0.8-0.5-0.9-2.4-2.2-1.6c-1.5,0.8-0.2,1.7,0.2,2.6c0.4,0.7,0.3,1.3-0.4,1.8
					c-0.4-0.3-0.9-0.6-1.3-0.9c0-0.2,0-0.3-0.1-0.5c0-1.6-0.1-3.3-0.1-4.9c0.3-0.2,0.5-0.5,0.8-0.7
					C320.3,240.4,321,240.4,321.7,240.4z"/>
				<path class="st9" d="M319,246.5c0.4,0.3,0.9,0.6,1.3,0.9c0,0.5,0,0.9,0,1.4c-0.5,0.3-0.7,0.8-0.6,1.4c-0.3,0.5-0.5,0.9-0.8,1.4
					c-1.3,0.2-2.2-0.5-3.3-0.9c0-0.2,0-0.3-0.1-0.5c0-0.6-0.2-1.1-0.8-1.4l0,0c0.2-1.4-0.3-2.8-0.8-4.1c0,0,0.2-0.2,0.2-0.2
					c1.6,0.1,1.3,1.7,1.9,2.6c0.6,0.8,0.6,2.3,1.9,2.2C319.5,249.1,318.6,247.4,319,246.5z"/>
				<path class="st9" d="M325.3,246.6c-0.3-0.9-0.5-1.8-0.8-2.7c2.7,1.2,4.1,3.2,3.5,6.3c-0.5-0.7-0.9-1.4-1.4-2l0,0
					C326.4,247.4,325.9,246.9,325.3,246.6L325.3,246.6z"/>
				<path class="st9" d="M299.6,216.7c-0.3-0.9-0.4-2,0.6-2.4c1.5-0.6,2.3,1,3.4,1.6c-0.2,0.2-0.5,0.5-0.7,0.7
					C301.7,216.6,300.7,216.7,299.6,216.7z"/>
				<path class="st5" d="M297.8,220.7c0.3-0.4,0.5-0.8,0.8-1.3c0.5,0,0.9,0,1.4,0c0.7,0.6,1.6,1.6,1,2.3c-0.8,0.9-2.1,0.8-3.1-0.2
					C297.9,221.2,297.9,221,297.8,220.7z"/>
				<path class="st9" d="M304.9,215.7c-0.7-1.5-1.4-3.1-2.1-4.6c3.1,0.4,2.9,2.7,2.8,4.8c-0.2,0.2-0.5,0.5-0.7,0.7
					C304.9,216.3,304.9,216,304.9,215.7z"/>
				<path class="st5" d="M291.6,227.1c0-0.7,0-1.4-0.1-2.2c0,0,0,0,0,0c1.3,0.2,1.9-1,2.9-1.3C294.6,225.6,294.3,227.3,291.6,227.1z
					"/>
				<path class="st9" d="M318.8,241.1c0,1.6,0.1,3.3,0.1,4.9C317,244.3,316.9,243,318.8,241.1z"/>
				<path class="st8" d="M326.6,248.1c0.5,0.7,0.9,1.4,1.4,2c0,0.6-0.1,1.3-0.1,1.9c-0.9,0.3-1.7,0.6-2.6,1
					C325.3,251.3,327.2,250,326.6,248.1z"/>
				<path class="st9" d="M294.4,223.6c-1,0.4-1.6,1.6-2.9,1.3c0.3-2,1.9-2.4,3.6-2.7C295.1,222.8,295,223.3,294.4,223.6z"/>
				<path class="st5" d="M304.9,215.7c0,0.3,0,0.6,0.1,1c-0.1,0.7,0.3,1.8-0.9,1.8c-0.9,0-1.1-0.9-1.2-1.8c0.2-0.2,0.5-0.5,0.7-0.7
					C304,215.8,304.4,215.8,304.9,215.7z"/>
				<path class="st9" d="M321.7,240.4c-0.7,0-1.4,0-2.1,0c0.1-0.6,0.2-1.2,0.9-1.2C321.4,239,321.6,239.6,321.7,240.4z"/>
				<path class="st5" d="M304.9,236.9c-0.9,0-1.4-0.5-1.4-1.4C304.4,235.5,304.9,236,304.9,236.9z"/>
				<path class="st9" d="M300,219.4c-0.5,0-0.9,0-1.4,0c0-0.6,0.1-1.1,0.7-1.4C299.9,218.3,300,218.8,300,219.4z"/>
				<path class="st9" d="M323.1,241.8c-0.3-0.4-0.6-0.9-0.9-1.3C323.1,240.5,324.2,240.4,323.1,241.8z"/>
				<path class="st5" d="M303.8,230.1c0.1-0.2,0.1-0.5,0.3-0.5c0.1-0.1,0.4,0.1,0.6,0.2c-0.1,0.2-0.1,0.5-0.3,0.5
					C304.2,230.4,304,230.2,303.8,230.1z"/>
				<path class="st9" d="M297.8,220.7c0,0.3,0.1,0.6,0.1,0.8c-0.3-0.1-0.6-0.1-0.9-0.2C297.3,221.1,297.6,220.9,297.8,220.7z"/>
				<path class="st9" d="M302.8,211.1c-0.9-0.5-1.8-1.1-2.7-1.6C302,208.4,302.9,208.9,302.8,211.1z"/>
				<path class="st14" d="M297.2,185.9c0.8-1.2,0.7-2.6,0.7-4c-0.1-2,0.7-3.3,2.8-3.7c0.4,2.5-0.5,4.7-1.5,6.8
					C298.7,186,297.9,185.8,297.2,185.9z"/>
				<path class="st2" d="M321.7,255.7c0.4,0.6,0.9,0.6,1.5,0.3c2-0.7,2.6-0.3,2.2,2c-0.4,2-0.2,4.1,0.1,6.1c0.2,1.4,0.9,1.3,1.9,1.2
					c0,0,0,0,0,0c0.2,0.2,0.5,0.5,0.7,0.7c0.7,0.7,1.4,1.4,2.1,2.1c0,1.4,1,1.4,2,1.5c0,0,0,0,0,0c0.1,0.9,0.5,1.4,1.5,1.3
					c0,0,0,0,0,0c1.5,2.8,4.6,3.9,6.5,6.2c0.4,0.5,1.8,0.4,2.4-0.6c0.2,0,0.4-0.1,0.6-0.2c1.1,3.3,0.3,6.2-2.3,8.3
					c-1.6,1.3-2.6,2.5-2.6,4.5c-3,0.3-2.8,3.3-4.2,4.9c-1.2,0-2.6,0-2.6,1.5c-0.1,1.9,1.6,1,2.6,1.3c0,0.8-0.1,1.6,0.7,2.1
					c0,0.2,0.1,0.4,0.1,0.6c0,0.5-0.1,1-0.1,1.5c-1.1,0.2-2.6,0.4-2.6,1.8c0,1.4,1.5,1.5,2.6,1.7c-0.1,1.5-1.5,1.6-2.3,2.2
					c-2.3,1.8-4.6,3.6-4,7c0.2,1.2-0.1,2.3-0.7,3.3c-0.7,0.1-1.8,0.4-2,0.2c-2.1-3.9-6.7-4.1-9.8-6.4c-2.6-1.9-2.1-8.7,0.8-11.9
					c4-4.4,7.1-9.1,7.5-15.4c0.4-5.7-2.8-9.4-6.6-12.5c-3.5-2.9-8.2-3.6-12.7-4.3c-6.9-1-13.8-1-20.6-0.6c-2.7,0.2-5.1-1-7.7-1.2
					c-1.4-0.1-1.5-1.8-1.5-3.1c-0.4-2.7,0.1-4.9,3-6.2c1.1-0.5,2.7-1.1,2.6-2.9c0,0,0,0,0,0c3.1,0.1,5.6-1.3,8.1-2.8
					c2.9-1.8,5.6-4.2,9.5-3.5c0.2,0.2,0.4,0.4,0.7,0.6c-0.1,1,0.4,1.5,1.4,1.5c0.1,0.1,0.1,0.3,0.1,0.5c-0.3,2.7,1.1,4.2,3.5,5
					l-0.1,0.1l0.1-0.1c-0.1,2.3,1.7,2.5,3.2,2.9c1.1,0.2,2.2,0.1,2.1-1.5c0.1-0.4,0.2-0.7,0.4-1.1l0.2,0c0,0,0.2-0.1,0.2-0.1
					c0.5,0,0.9,0,1.4,0c2.3,0.8,4.7,1.6,7,2.4c0.9,0.3,1.3-0.1,1.4-0.9C320.8,255.8,321.2,255.8,321.7,255.7z"/>
				<path class="st7" d="M246.9,208.9c-0.5,0-0.9,0-1.4,0c0.5-0.8,1.3-0.7,2.1-0.7C247.4,208.5,247.1,208.7,246.9,208.9z"/>
				<path class="st5" d="M335,304.7c-1.1-0.2-2.6-0.4-2.6-1.7c0-1.4,1.5-1.5,2.6-1.8C334.9,302.3,335,303.5,335,304.7z"/>
				<path class="st5" d="M342,317.3c-3,0.3-4.1-1-3.2-3.9c0.3-0.9,0.7-1.7-0.3-2.4c0.1-0.7,0-1.6,0.8-2c0.6,0,1-0.2,1.3-0.7
					c0.2-0.3,0.4-0.5,0.6-0.8c0,0,0,0,0,0c1,0,1.9,0,2.9,0.1c0,1-0.3,1.9-0.8,2.8C340.5,312.2,342.6,315,342,317.3L342,317.3z"/>
				<path class="st9" d="M342,317.3c0.7-2.3-1.4-5.1,1.3-7C343.4,312.7,343.4,315.1,342,317.3z"/>
				<path class="st9" d="M344.1,307.5c-1,0-1.9,0-2.9-0.1c0.5-1.5,2.4-1.1,3.1-2.4C345,306.1,344.9,306.8,344.1,307.5z"/>
				<path class="st5" d="M334.3,297c-1-0.2-2.6,0.6-2.6-1.3c0-1.5,1.4-1.5,2.6-1.5C334.3,295.1,334.3,296.1,334.3,297z"/>
				<path class="st9" d="M171.4,259.9c-0.1-0.1-0.2-0.1-0.3-0.2C171.2,259.8,171.3,259.9,171.4,259.9
					C171.4,259.9,171.4,259.9,171.4,259.9z"/>
				<path class="st3" d="M178.4,266.9c1.8-0.1,3.6-0.3,3.5-2.8c1.4-1.5,2.4-1.8,2.8,0.7c0.5,2.6-0.8,4.3-2.8,5.6
					c-0.4,0-0.9-0.1-1.3-0.1c-0.2-0.2-0.5-0.4-0.7-0.7C179.8,268.5,178.8,267.9,178.4,266.9z"/>
				<path class="st14" d="M228,279.6c-0.4-0.1-0.9-0.1-1.3-0.2c-0.9-2.9-3.5-3.7-5.9-4.7c-1.1-0.4-2.1-0.7-1.6-2
					c0.6-1.6,1.8-0.7,2.5-0.2c1.6,1,3.1,2,5,0.7c3.1,0.9,6.2,1.7,8.2,4.4c0.1,0.1,0.7,0.1,0.9,0c3-1.7,6-0.9,9-0.2
					c-1.4,2.4-4.6,2.2-6.3,4.2c-2.2-0.9-4.4-1.8-6.7-2.6C230.6,278.7,229.1,278.3,228,279.6z"/>
				<path class="st9" d="M269.5,201.9c-1.7,0-3.9,0.2-4.5-1.8c-0.6-2,0.2-4.2,0.7-6.3c0.1-0.3,0.6-0.7,0.7-0.6
					c2.7,1.8,4.3-0.4,6.4-1.5c2-1.1,4.3,0.8,4.1,3.2C276.7,198.3,272.9,201.9,269.5,201.9z M270,195.6c-2,0.1-3.4,0.8-3.4,2.5
					c0,1.5,1.3,2.5,2.9,2.3c1.6-0.2,3.6-0.9,3.5-2.6C273,196.4,271.4,195.5,270,195.6z"/>
				<path class="st14" d="M270,257.1c0.5,1.4,2.6-0.8,2.6,1.1c0,1.3-0.4,2.5-2,3.3c-4.2,2.2-7.8,5.5-12.5,6.8
					C260.9,263.4,263.8,258.5,270,257.1z"/>
				<path class="st9" d="M281.1,218.7c0.1,2.5-1.6,3.5-3.6,4c-0.9,0.2-1.4-0.7-1.1-1.3c1.1-1.9-0.8-5.2,2.3-5.9
					C280.3,215.1,281.1,217,281.1,218.7z"/>
				<path class="st7" d="M279.8,248c1.6,0.4,2.9-0.4,4.1-1.3c0.3-0.2,0.5-0.5,0.8-0.7c0,0,0,0,0,0c2.2-0.1,2.3,1.3,2.2,2.8
					c-1.5,0.2-3.2,0-3.4,2.2l0,0.1c-1.5-0.5-2.9,0.4-4.3,0.5C279,250.3,279.1,249.1,279.8,248z"/>
				<path class="st8" d="M279,251.5c1.4-0.2,2.8-1,4.3-0.5c-0.7,0.6-1.5,1.3-2.2,1.9c0,0,0,0,0,0c-2.3,0.8-4.2,2.2-6.1,3.7l-0.2-0.1
					c-0.2-0.5-0.5-0.9-0.7-1.4C275.8,253.9,277.4,252.7,279,251.5z"/>
				<path class="st8" d="M222.4,268.3c-0.6,0-1.1-0.1-1.4-0.7C221.6,267.6,222.1,267.8,222.4,268.3z"/>
				<path class="st8" d="M223.8,269c-0.3-0.2-0.5-0.4-0.8-0.7C223.3,268.6,223.5,268.8,223.8,269z"/>
				<path class="st8" d="M268.6,273.1c3.5,1.1,2.8,3.8,2.5,6.4C269.1,277.8,269.4,275.3,268.6,273.1z"/>
				<path class="st8" d="M274.2,263.4c-0.6,0.8-1.1,1.7-2.2,1.9c0.8-2.5,1.9-4.9,1.5-7.6c-0.1-0.8,0.6-1.2,1.3-1.3
					c0,0,0.2,0.1,0.2,0.1C274.3,258.8,274,261.1,274.2,263.4z"/>
				<path class="st8" d="M253.2,292.8c-1.3-1-2.6-2.1-3.5-3.5C252.1,289.3,253.2,290.4,253.2,292.8z"/>
				<path class="st8" d="M268.4,268.3c0,1.2-0.1,2.3-0.1,3.5C266.7,270.6,266.5,269.4,268.4,268.3z"/>
				<path class="st8" d="M271.3,280.9c0.9,0.7,1.3,1.6,1.4,2.8C271.3,283.3,270.3,282.6,271.3,280.9z"/>
				<path class="st8" d="M270.9,265.6c-0.4,1.1-1.1,1.9-2.3,2.1C268.6,266.2,269.3,265.5,270.9,265.6z"/>
				<path class="st8" d="M249.7,289.3c-1,0-1.7-0.5-2.1-1.4C248.6,287.9,249.6,287.9,249.7,289.3z"/>
				<path class="st13" d="M310.6,331.1c-1.7,2.1-2.8-1-4.3-0.6c0.9-1.8,2.1-1.5,3.5-0.7C310.1,330.3,310.3,330.7,310.6,331.1z"/>
				<path class="st1" d="M293.7,306.1c0.3-0.5,0.7-0.7,1.3-0.5c0.1,0,0.1,0.2,0.2,0.3C294.7,305.9,294.2,306,293.7,306.1
					C293.7,306.1,293.7,306.1,293.7,306.1z"/>
				<path class="st13" d="M306.3,330.5c-0.2,0.4-0.5,0.4-0.7,0C305.8,330.5,306.1,330.5,306.3,330.5z"/>
				<path class="st13" d="M231.4,353.2c-0.8-0.3-1.4-0.7-1.4-1.7C231.2,351.5,231.5,352.2,231.4,353.2z"/>
				<path class="st9" d="M242,315.2c-2.1,1.7-2.7,4.1-3.9,6.3c-1.8,3.4-3.2,8-8,9.1c1.9-2.7,3.7-5.4,5.7-8.1c0.7-1,1.3-1.8,1.4-3.1
					C237.4,316.6,239.1,315.2,242,315.2z"/>
				<path class="st8" d="M201.5,266.2c2,0.7,3.9,1.5,3.4,4.2C203.1,269.6,202,268.2,201.5,266.2z"/>
				<path class="st8" d="M207.6,272.5c0.8-0.8,1.7-1.3,2.9-1C210,273,208.7,272.4,207.6,272.5z"/>
				<path class="st8" d="M200.8,265.5c0.2,0.3,0.5,0.5,0.7,0.8C201.3,266,201,265.7,200.8,265.5z"/>
				<path class="st9" d="M274.2,263.4c-0.2-2.3,0.1-4.6,0.8-6.9c1.9-1.5,3.8-2.9,6.1-3.7c0.1,1.8-1.5,2.4-2.6,2.9
					c-2.8,1.3-3.3,3.5-3,6.2C275.1,262.5,274.6,263,274.2,263.4z"/>
				<path class="st13" d="M315.3,334.5c-0.4,1.4-1.5,1.9-2.7,2c-1.1,0.1-2.1-0.5-2-1.9c0.1-1.8,1.6-1.3,2.7-1.3
					C314.2,333.3,315.2,333.3,315.3,334.5z"/>
				<path class="st6" d="M286.7,248.7c0.1-1.6,0-3-2.2-2.8c0-1.1,0.1-2.3,1.3-2.5c3.3-0.8,5.5-3.3,8.1-5.1
					c5.1-3.3,10.1-1.6,12.4,4.1c0.5,1.2,1.3,2.4,2,3.5c0.2,0.4,0.4,0.5,0.7,0.1c0.5,0,0.9-0.1,1.4-0.1c2.3-0.3,3,1.6,4.2,2.8
					c0,0,0,0,0,0c0,0.6,0.2,1.1,0.8,1.4c0.1,0.1,0.1,0.3,0.1,0.5c0,2.5-2.5,1.9-3.6,3l0,0c-0.6,0-1.1,0.1-1.4,0.7l-0.2,0.1
					c0,0-0.2,0-0.2,0c-1.5,0-2.9-0.1-4.4-0.1c-0.4,0-0.9-0.1-1.3-0.1l-0.1,0.1c0,0,0.1-0.1,0.1-0.1c0-0.4-0.1-0.8-0.1-1.3
					c1.1-1.8-0.4-1.8-1.5-2.1c-0.7-0.5-1.3-1.1-2-1.6c0-0.2,0-0.3-0.1-0.5c-0.2-0.8-0.7-1.2-1.4-1.5c-0.2-0.2-0.4-0.4-0.7-0.6
					c-0.3-0.5-0.5-0.9-0.8-1.4c-0.3-0.2-0.5-0.4-0.8-0.6l0,0c-0.4-0.8-0.9-0.8-1.3-0.1c-0.4,0-0.9,0-1.3,0c-0.6,0-1.2,0-1.5,0.7
					c-0.2,0.2-0.5,0.4-0.7,0.6c-0.2,0.2-0.5,0.5-0.7,0.7c-0.4,0.8-1.1,1.3-2,1.4c-0.3,0.2-0.5,0.4-0.8,0.6c-0.2,0.1-0.4,0.1-0.6,0.1
					C287.7,248.8,287.2,248.8,286.7,248.7z M289.9,244.8c0-0.4-0.2-0.7-0.6-0.6c-0.7,0.1-1.4,0.3-1.6,1.1c-0.1,0.6,0.5,0.7,1,0.6
					C289.4,245.8,289.8,245.4,289.9,244.8z"/>
				<path class="st8" d="M314.7,248.8c-1.2-1.2-1.9-3.2-4.2-2.8c0.5-2.2,2.1-1.1,3.4-1.3C314.3,246,314.8,247.3,314.7,248.8z"/>
				<path class="st6" d="M284.6,245.9c-0.3,0.2-0.5,0.5-0.8,0.7C284.1,246.4,284.4,246.2,284.6,245.9z"/>
				<path class="st8" d="M309.1,246.1c-0.3,0.4-0.5,0.3-0.7-0.1C308.6,245.9,308.9,246,309.1,246.1z"/>
				<path class="st9" d="M342.6,276.7c-0.6,1-2,1.1-2.4,0.6c-2-2.3-5-3.5-6.5-6.2C337.5,271.6,339.3,275.4,342.6,276.7z"/>
				<path class="st9" d="M332.1,269.8c-1,0-2,0-2-1.5C331.1,268.4,331.8,268.8,332.1,269.8z"/>
				<path class="st9" d="M333.6,271c-1,0.1-1.4-0.3-1.5-1.3C332.8,270,333.4,270.3,333.6,271z"/>
				<path class="st9" d="M328,266.2c-0.2-0.2-0.5-0.5-0.7-0.7C327.5,265.7,327.8,266,328,266.2z"/>
				<path class="st6" d="M326.6,248.1c0.6,1.9-1.2,3.2-1.4,4.9c-0.5,0.8-1.2,1.3-2.1,1.3c-1.9-1.4-3.9,0.8-5.8,0c0-0.1,0-0.2,0-0.4
					c0.4-0.9,1.7-1.2,1.6-2.4c0.3-0.5,0.5-0.9,0.8-1.4c0.9-0.2,1.6-0.4,0.6-1.4c0-0.5,0-0.9,0-1.4c0.6-0.5,0.7-1.1,0.4-1.8
					c-0.4-0.8-1.7-1.8-0.2-2.6c1.4-0.7,1.4,1.1,2.2,1.6c0.9,0.6,1,2.2,2.6,2c0,0,0,0,0,0C325.2,247.5,325.6,248,326.6,248.1
					L326.6,248.1z"/>
				<path class="st8" d="M317.3,254.3c1.9,0.8,3.9-1.4,5.8,0c-0.5,0.5-0.9,0.9-1.4,1.4c-0.5,0.1-0.9,0.1-1.4,0.2
					C319.2,255.6,317.8,255.9,317.3,254.3z"/>
				<path class="st8" d="M318.9,251.5c0.1,1.2-1.2,1.5-1.6,2.4c-1.8-0.1-3.6-0.2-5.4-0.3c1.1-1.1,3.7-0.5,3.6-3
					C316.6,251,317.6,251.8,318.9,251.5z"/>
				<path class="st8" d="M320.3,248.8c1,1,0.3,1.2-0.6,1.4C319.6,249.6,319.8,249.1,320.3,248.8z"/>
				<path class="st8" d="M315.4,250.2c-0.6-0.3-0.7-0.8-0.8-1.4C315.2,249.1,315.4,249.6,315.4,250.2z"/>
				<path class="st8" d="M326.5,248.1c-0.9-0.1-1.4-0.6-1.3-1.5C325.9,246.9,326.4,247.4,326.5,248.1z"/>
				<path class="st9" d="M294.5,244.6c0.4,0,0.9,0,1.3,0c0.4,0,0.9,0.1,1.3,0.1c0,0,0,0,0,0c0.3,0.2,0.5,0.4,0.8,0.6
					c0.3,0.5,0.5,0.9,0.8,1.4c-3.9-0.7-6.6,1.8-9.5,3.5c-2.5,1.5-5,2.9-8.1,2.8c0.7-0.6,1.5-1.3,2.2-1.9c0,0,0-0.1,0-0.1
					c2,0.2,3.5-0.9,4.9-2.1c0.2,0,0.4,0,0.6-0.1c0.3-0.2,0.5-0.4,0.8-0.6c0.9-0.1,1.6-0.6,2-1.4c0.2-0.2,0.5-0.5,0.7-0.7
					c0.2-0.2,0.5-0.4,0.7-0.6C293.5,245.1,294,244.9,294.5,244.6z"/>
				<path class="st9" d="M311.9,253.7c1.8,0.1,3.6,0.2,5.4,0.3c0,0.1,0,0.2,0,0.4c0.5,1.5,1.9,1.2,3.1,1.6c-0.2,0.8-0.5,1.2-1.4,0.9
					c-2.3-0.8-4.7-1.6-7-2.4C311.9,254.1,311.9,253.9,311.9,253.7L311.9,253.7z"/>
				<path class="st9" d="M304.4,254.2c0.4,0,0.9,0.1,1.3,0.1c1,1.4,2.5,1.4,4,1.2c0.1,1.6-1,1.7-2.1,1.5
					C306,256.8,304.2,256.5,304.4,254.2z"/>
				<path class="st9" d="M304.3,253c0,0.4,0.1,0.8,0.1,1.3c-2.4-0.8-3.8-2.3-3.5-5c0.7,0.5,1.3,1.1,2,1.6
					C302.8,251.9,303.3,252.6,304.3,253z"/>
				<path class="st8" d="M309.7,255.6c-1.5,0.2-3,0.2-4-1.2c1.5,0,2.9,0.1,4.4,0.1C309.9,254.8,309.8,255.2,309.7,255.6z"/>
				<path class="st9" d="M299.4,247.3c0.7,0.3,1.2,0.7,1.4,1.5C299.8,248.7,299.3,248.2,299.4,247.3z"/>
				<path class="st8" d="M311.9,253.7c0,0.2,0,0.5,0,0.7c-0.5,0-0.9,0-1.4,0C310.8,253.8,311.3,253.7,311.9,253.7z"/>
				<path class="st2" d="M270,195.6c1.4-0.2,3.1,0.8,3.1,2.2c0,1.8-1.9,2.4-3.5,2.6c-1.6,0.2-2.8-0.7-2.9-2.3
					C266.6,196.4,268,195.7,270,195.6z"/>
				<path class="st8" d="M288.2,248.8c-1.4,1.2-2.9,2.3-4.9,2.1c0.2-2.1,1.9-2,3.4-2.2C287.2,248.8,287.7,248.8,288.2,248.8z"/>
				<path class="st7" d="M289.9,244.8c-0.2,0.6-0.6,1-1.2,1.1c-0.5,0.1-1.1,0-1-0.6c0.1-0.8,0.9-1,1.6-1.1
					C289.7,244.1,290,244.4,289.9,244.8z"/>
				<path class="st8" d="M304.3,253c-0.9-0.4-1.4-1.1-1.5-2.1C303.9,251.2,305.4,251.1,304.3,253z"/>
				<path class="st8" d="M294.5,244.6c-0.5,0.2-1,0.5-1.5,0.7C293.3,244.7,293.9,244.6,294.5,244.6z"/>
				<path class="st8" d="M297.2,244.6c-0.4,0-0.9-0.1-1.3-0.1C296.3,243.9,296.8,243.8,297.2,244.6z"/>
				<path class="st8" d="M289.6,248.1c-0.3,0.2-0.5,0.4-0.8,0.6C289.1,248.5,289.3,248.3,289.6,248.1z"/>
				<path class="st8" d="M297.9,245.2c-0.3-0.2-0.5-0.4-0.8-0.6C297.4,244.8,297.7,245,297.9,245.2z"/>
				<path class="st8" d="M292.4,246c-0.2,0.2-0.5,0.5-0.7,0.7C291.9,246.4,292.1,246.2,292.4,246z"/>
			</g>
		</g>
		<g>
			<g>
				<path class="st16" d="M312.4,318.4c-6.3,5-15.3,5.8-22.4,1.8c-1.4-0.8-2.4-0.2-3.6,0.2c-2.8,0.9-5.5,2.4-8.6,2.1
					c-4.4-0.3-6.2-3.3-3.7-6.9c2.1-3.1,4.7-6,7.1-8.9c1-1.2,2.3-1.9,3.7-1c1.6,1,1.5,2.7,0.6,4.1c-0.9,1.4-2,2.7-3.1,4
					c-1.2,1.4-2.8,2.4-3.2,4.9c5.1-0.3,8.8-2.3,11.3-6.3c0.8-1.2,1.2-3.3,3.3-2.5c2,0.8,1.7,2.6,1.4,4.3c-0.9,4.2-0.1,5.1,4.1,4.9
					c3.9-0.2,7.6-1.2,10.4-4.2c2.8-3.1,2.9-6,0.2-8.8c-0.8-0.8-2.2-1.4-0.8-2.6c1-0.9,2.1-0.4,3.1,0.3
					C316.2,306.6,316.3,315.2,312.4,318.4z"/>
				<path class="st16" d="M272.5,311.7c-0.5-3.7-2.6-5.7-6-6.8c-6.5-2.1-19.1,2-23.1,7.6c-2.5,3.5-1.3,7.3,2.7,8.9
					c2.5,1,5.2,1.3,7.3,1.2c5.4,0,11.4-1.3,14.6-3.1C271.1,317.8,273,315.5,272.5,311.7z M265.4,316.1c-3.3,2.2-7.1,2.6-11,2.7
					c-0.7,0-1.4,0.1-2.1,0c-1.9-0.4-4.5-0.4-4.9-2.6c-0.3-2,2-2.8,3.6-3.7c3.8-2.2,7.7-4.2,12.4-3.6c2.1,0.3,4,1,4.7,3
					C268.9,314.1,266.9,315,265.4,316.1z"/>
				<path class="st16" d="M241.9,309.7c-0.3,1.7-1.5,1.2-2.6,1.1c-2.4-0.3-4.5-2.8-7.2-1.1c-3.2,1.9-4.2,5.2-5.4,8.3
					c-0.4,1-0.7,2.2-1.3,3.1c-1.2,1.8-3.2,3.5-5.3,2.2c-1.9-1.2,0-3.1,0.8-4.3c2.6-3.9,4.7-8,4.8-12.8c0-1.4,0.7-2.8,1.7-3.8
					c1-0.9,2.4-1.6,2.9,0.4c0.8,2.8,2.6,3.1,5.1,3.1C238.3,305.8,241,306.4,241.9,309.7z"/>
				<path class="st16" d="M220.2,291c-11.2,2.8-21.4,7.5-29.8,15.6c-2.5,2.4-5.3,4.8-3.8,8.7c1.6,4,5.6,3.8,9.4,4.3
					c5.1-1.4,11.7,0.4,15-6.2c0.6-1.2,1.9-2.6,1-3.8c-0.9-1.2-2.3,0.3-3.5,0.5c-1,0.2-1.9,0.6-2.9,0.7c-1.7,0.2-3.2-0.4-3.5-2.3
					c-0.3-1.9,0.8-3.1,2.7-3c4.2,0.1,8.1-1.3,12.1-2.3c2.8-0.7,3.9,0.7,3,3.2c-0.9,2.4-2.1,4.6-3.4,6.8c-2.1,3.3-4.5,6.5-5.7,10.3
					c-0.5,1.5-1.4,2.8-3.3,2.7c-1.6-0.2-2.6-0.9-2.5-2.7c0.1-2.1-1.4-1.1-2.3-1.1c-5,0.3-9.9,0.9-14.8-0.6
					c-5.3-1.5-7.3-5.1-5.5-10.3c1.5-4.1,4-7.5,7.6-10c8.1-5.5,16.3-10.9,25.6-14.2c1.3-0.5,2.7-0.8,4.1-1c1.8-0.3,3.8,0.3,4.1,2.1
					C224.1,290.7,221.7,290.6,220.2,291z"/>
			</g>
			<g>
				<path class="st16" d="M263.4,261.2c-0.7,4.3-3.7,7.6-5.2,11.5c-0.4,1.1-2,1.1-3.1,0.6c-1.4-0.6-1.7-1.8-1.3-3.2
					c0.6-1.9,1.9-3.4,3.2-4.9c1.1-1.2,2.1-2.6,0.8-4.1c-1.2-1.4-3-0.7-4.3,0c-2.1,1.2-3.9,2.7-5.6,4.5c-2.4,2.6-4.7,5.3-8.1,6.7
					c-1,0.4-2.2,0.9-3.1-0.2c-0.7-0.9-0.2-1.9,0.2-2.8c2.5-5.2,6.9-9.2,9.6-14.3c0.8-1.5,3.2-1.7,3.6,0.3c0.7,3.3,2.3,1.8,3.9,1.2
					c4.8-1.7,7.7-0.9,8.9,2.6C263.3,259.8,263.3,260.5,263.4,261.2z"/>
				<path class="st16" d="M243.5,245.2c-1.5,2.7-3.2,5.2-3.2,8.5c0,1.2-1.2,1.5-2.3,1.1c-1.9-0.6-2.4-2.1-2.5-4.4
					c0.5-3.2,2.5-6,5-8.5c0.6-0.6,1.5-0.7,2.3-0.1C244.1,242.8,244.2,244.1,243.5,245.2z"/>
			</g>
			<g>
				<path class="st16" d="M299.3,200.2c1,0.9,1.3,3.4-0.9,2.8c-6-1.7-8.6,2.7-11.5,6c-1.7,2-4.8,4.3-3.5,7.2c1.4,3.1,5.3,2.7,8.3,3
					c0.8,0.1,1.7-0.1,2.5,0.1c0.5,0.1,1.1,0.4,1.3,0.8c0.4,0.9-0.5,1.2-1,1.5c-2.9,1.7-13,0.7-15.1-1.7c-2.7-3-1.4-6.1,0.6-8.9
					c1.8-2.5,4-4.7,6.2-7.2c-2.3-0.8-3.6,0.3-5.1,0.6c-1.7,0.4-3.8,0.9-4.2-1.5c-0.4-2.2,1.7-2.6,3.4-2.9c0.8-0.1,1.7-0.2,2.5-0.1
					c6,0.5,10-2.2,12.5-7.5c0.6-1.3,0.9-4.4,3.5-2.9c2.1,1.2,1.3,3.5,0.2,5.2C297.8,196.7,297,198.3,299.3,200.2z"/>
				<path class="st16" d="M282.7,196.9c-0.5,0.5-0.9,1.2-1.7,0.9c-0.9-0.3-0.7-1.1-0.7-1.8c-0.5-5.5-2.8-6.7-7.7-3.9
					c-4,2.3-5.6,6.3-7.3,10.1c-0.8,1.7,0.9,2.1,2,2.6c1.3,0.6,2.9,1.4,2.4,3c-0.5,1.7-2.2,0.9-3.3,0.7c-3.9-0.9-5.8,1-7.2,4.2
					c-1.1,2.5-2,5.4-4.3,7.2c-1.3,1.1-3,2.3-4.6,1c-1.5-1.2-0.1-2.8,0.5-4.2c1-2.1,3-3.7,3.3-6.3c-2.4-0.3-6.1,1.9-6.4-1.8
					c-0.2-3.2,3.5-3.1,6-3.1c3.2-0.1,5.3-1.3,6.8-4.1c2.5-4.4,5.2-8.7,9.4-11.9c2.9-2.2,6.1-3,9.6-2.4c2.2,0.4,4,1.5,4.6,3.8
					C284.8,193.3,284.2,195.2,282.7,196.9z"/>
				<path class="st16" d="M249.5,193.3c0.1,1.7-1.6,2.2-3.1,2c-1.9-0.3-2.6-1.7-2-3.4c0.4-1.2,0.1-2.9,2.2-3.3
					C247.7,190,249.4,191.3,249.5,193.3z"/>
				<path class="st16" d="M244.8,207.5c-0.9,3.5-2.2,7.1-4.1,10.4c-0.7,1.2-2,1.8-3.3,1.1c-1.4-0.7-1.3-2.2-0.9-3.4
					c1.3-3.3,2.8-6.4,4.3-9.6c0.5-1,1.2-2.1,2.6-1.6C244.8,204.9,244.7,206.1,244.8,207.5z"/>
				<path class="st16" d="M239.2,187.3c0.1,1.7-1.5,1.9-2.7,2.2c-4.5,0.9-8.7,2.6-12.9,4.3c-6.5,2.6-12.3,6.4-17.4,11.2
					c-2.6,2.5-5.6,5.2-4.1,9.1c1.6,4.2,5.9,3.7,10.2,4.3c2.7-0.5,6.1-1,9.4-1.7c3.3-0.7,4.6-3.5,5.9-6.1c0.4-0.8,0.7-1.7,0.1-2.4
					c-0.7-0.8-1.5-0.3-2.3-0.1c-1.5,0.4-3,1-4.5,1.1c-1.6,0.2-2.9-0.6-3.1-2.3c-0.1-1.6,0.9-2.9,2.5-2.8c4.4,0.2,8.4-1.5,12.5-2.3
					c2.6-0.5,3.5,0.3,2.6,2.9c-0.8,2.1-1.7,4.2-2.9,6.1c-2.3,3.7-5.3,7-6.3,11.4c-0.3,1.4-1.3,2.6-3,2.5c-1.6-0.1-2.7-0.9-2.6-2.7
					c0.1-2.5-1.4-1.4-2.6-1.3c-4.8,0.4-9.6,0.9-14.4-0.5c-5.5-1.6-7.3-4.9-5.6-10.2c1.2-4,3.7-7.1,6.9-9.4
					c8.2-5.8,16.7-11.3,26.2-14.8c1.6-0.6,3.2-1.2,5-0.9C237.4,185.2,239.1,185.5,239.2,187.3z"/>
			</g>
		</g>
		<g>
			<g>
				<g>
					<path class="st4" d="M231.6,151c-5.9,1.2-14.4,1.8-20.1,0.4c-5.7-1.4-12.8-6.2-10.4-11.6c4.4-9.7,22.3-6.4,28.3-4.1
						c3.8,1.5,6.3,3.1,8.7,4.3c0.4-1.2,1-2.3,1.8-3.2c-0.2-0.2-0.4-0.3-0.6-0.5c-6.2-5-17.9-9.2-26.2-7.8c-8.3,1.4-16.8,5-17.2,13.6
						c-0.4,7.7,7.1,11.7,14.1,14c0.2,0.1,0.5,0.1,0.7,0.2c0,0,0.1,0,0.1,0h0c0.3,0.1,0.7,0.2,1.1,0.3c4.1,0.9,9,0.8,13.5,0.1
						c1.6-0.2,3.2-0.5,4.6-0.9c1.4-1.3,3.1-2.6,4.9-3.8c0.8-0.5,1.7-1.1,2.6-1.5c0.4-0.2,0.9-0.5,1.3-0.7c-0.1-0.2-0.2-0.4-0.3-0.6
						C236.4,149.9,234.1,150.4,231.6,151z"/>
					<path class="st4" d="M241,148.7c0,0.1-0.1,0.2-0.1,0.3c-0.1,0-0.2,0.1-0.3,0.1c-0.1-0.1-0.1-0.2-0.2-0.3
						C240.6,148.8,240.8,148.7,241,148.7z"/>
					<path class="st4" d="M242.1,141.6h0.8c0,0.1,0,0.1-0.1,0.2C242.6,141.7,242.4,141.6,242.1,141.6z"/>
					<path class="st4" d="M243.6,139.3C243.6,139.4,243.6,139.4,243.6,139.3c-0.3-0.1-0.5-0.2-0.7-0.4c-0.1-0.1-0.1-0.1-0.1-0.2
						C243.1,139,243.3,139.2,243.6,139.3z"/>
					<g>
						<path class="st4" d="M244.3,133.3c-1,0.5-1.9,1-2.7,1.8c-2.6-3.4-5.2-6.7-9.9-10.2c-5.4-4-18.3-11.7-25.2-4.3
							c-2.2,2.3-2,5.4-0.6,8.3c-1.6,0.6-3.1,1.4-4.6,2.2c-1.5-3-1.9-6.3-0.5-9.8c3.1-7.4,11.6-9.4,19.6-7.6
							c8,1.8,14.2,7.7,19.8,14.4C241.8,129.9,243.1,131.6,244.3,133.3z"/>
						<path class="st4" d="M246.2,135.9c-0.7,0.7-1.4,1.6-2,2.6c-0.2-0.3-0.4-0.5-0.6-0.8c0.4-0.6,0.8-1.2,1.3-1.9
							c0.1-0.1,0.1-0.1,0.2-0.1c0.3-0.1,0.6-0.2,0.8-0.2h0.1C246,135.6,246.1,135.7,246.2,135.9z"/>
						<path class="st4" d="M237.5,142.3c-0.1,0.5-0.1,1.1-0.1,1.7c0,0.5,0,1,0.1,1.5c-2.7,0.1-5.4,0.2-8.1,0.1
							c-7.8-0.5-16-2.9-21.7-7.2c-0.7-0.5-1.4-1.1-2-1.7c1.7-0.9,3.4-1.6,5.2-2.1c4.7,3.3,11.4,5.1,17.6,6.6
							C231.3,141.7,234.4,142,237.5,142.3z"/>
						<path class="st4" d="M242.3,142.8c-0.2,0.8-0.4,1.7-0.5,2.6c-0.8,0-1.6,0-2.3,0c0.2-0.3,0.4-0.7,0.5-1.1
							c0.3-0.6,0.6-1.1,0.8-1.7C241.3,142.7,241.8,142.8,242.3,142.8z"/>
					</g>
				</g>
				<g>
					<path class="st4" d="M254.8,139.3c0.3-0.2,0.6-0.4,0.9-0.6c-0.2,0.4-0.4,0.8-0.7,1.2C255,139.7,254.9,139.5,254.8,139.3z"/>
					<path class="st4" d="M257.4,148.7c0.1,0,0.3,0.1,0.5,0.1c0,0.1-0.1,0.2-0.1,0.3c-0.1,0-0.2-0.1-0.3-0.1
						C257.5,148.9,257.5,148.8,257.4,148.7z"/>
					<path class="st4" d="M302.5,142.1c0.4,7.7-7.1,11.7-14.1,14c-5.7,1.9-13.7,1.3-20.1-0.2c-2.4-2.3-5.6-4.4-9-6
						c0.1-0.2,0.2-0.4,0.3-0.6c2.3,0.6,4.6,1.2,7.1,1.7c5.9,1.2,14.4,1.8,20.1,0.4c5.7-1.4,12.8-6.2,10.4-11.6
						c-4.4-9.7-22.3-6.4-28.3-4.1c-3.9,1.6-6.4,3.1-8.8,4.3c-0.4-1.2-1-2.2-1.8-3.2c0.2-0.2,0.5-0.4,0.7-0.6
						c6.2-5,17.9-9.2,26.2-7.8C293.5,129.9,302.1,133.5,302.5,142.1z"/>
					<g>
						<path class="st4" d="M254.1,136.3c0.3,0.4,0.6,0.9,0.8,1.3c-0.2,0.3-0.4,0.5-0.6,0.8c-0.6-1-1.3-1.8-2-2.6
							c0.1-0.2,0.2-0.3,0.3-0.5C253.2,135.5,253.7,135.8,254.1,136.3z"/>
						<path class="st4" d="M297.2,131c-1.5-0.9-3-1.6-4.6-2.2c1.4-2.8,1.6-5.9-0.6-8.3c-7-7.4-19.8,0.2-25.2,4.3
							c-4.7,3.5-7.3,6.9-9.9,10.3c-0.8-0.7-1.7-1.3-2.7-1.8c1.2-1.6,2.5-3.4,4.2-5.3c5.6-6.6,11.7-12.6,19.8-14.4
							c8-1.8,16.5,0.1,19.6,7.6C299.1,124.7,298.7,128,297.2,131z"/>
						<path class="st4" d="M257.7,142.7c0.5,0.9,0.9,1.9,1.4,2.8c-0.8,0-1.6,0-2.4,0c-0.1-0.9-0.3-1.7-0.5-2.6
							C256.7,142.8,257.2,142.7,257.7,142.7z"/>
						<path class="st4" d="M292.8,136.6c-0.6,0.6-1.3,1.1-2,1.7c-5.7,4.4-13.9,6.8-21.7,7.2c-2.8,0.2-5.5,0-8.3-0.1
							c0.1-0.5,0.1-1,0.1-1.5c0-0.6,0-1.1-0.1-1.7c3.1-0.3,6.3-0.6,9.1-1.3c6.3-1.5,12.9-3.2,17.6-6.6
							C289.4,135,291.1,135.7,292.8,136.6z"/>
					</g>
				</g>
			</g>
			<path class="st4" d="M210.8,156.3C210.8,156.3,210.8,156.3,210.8,156.3c0.5-0.3,1.1-0.5,1.8-0.7
				C212,155.8,211.4,156.1,210.8,156.3L210.8,156.3z"/>
			<path class="st4" d="M370,286.9c-4.3,27.6-19.1,53.4-40.5,71.5c-10.7,9.1-22.9,16.2-36,21.1c-13.2,4.8-27.1,7.3-41.2,7.4
				c-14-0.1-28-2.5-41.2-7.3c-13.2-4.8-25.4-12-36.1-21c-21.4-18-36.3-43.7-40.7-71.3c-4.7-27.5,0.8-56.6,15.1-80.5
				c7.1-12,16.4-22.5,27.1-31.3c5.3-4.3,10.9-8.1,16.8-11.4c5.2-2.9,10.6-5.4,16.2-7.5c0.1,0,0.2,0,0.3,0
				c-5.3,2.1-10.4,4.6-15.3,7.5c-18.1,10.5-33.4,25.6-43.5,43.7c-13.6,23.7-18.7,52.2-13.7,79c4.7,26.8,19.2,51.7,40.1,69.1
				c10.4,8.7,22.4,15.6,35.1,20.2c12.8,4.6,26.3,6.9,39.9,6.9c13.6,0,27.1-2.4,39.9-7c12.7-4.7,24.6-11.6,35-20.3
				c20.9-17.4,35.2-42.4,39.8-69.2c4.8-26.8-0.3-55.3-14-78.9c-10.2-18-25.6-33-43.6-43.5c-4.8-2.8-9.8-5.2-14.9-7.3
				c0.1,0,0.2,0,0.3,0c5.4,2,10.6,4.4,15.7,7.3c18,10,33.5,24.7,44.2,42.5C369,230.4,374.6,259.4,370,286.9z"/>
		</g>
	</g>
	<g>
		<path class="st4" d="M246.3,145.6c-0.4-0.3-0.8-0.5-1.2-0.7c-0.3-0.2-0.3-0.2-0.4,0.1c-0.4,0.9-0.8,1.8-1.3,2.7
			c-0.1,0.1-0.1,0.2-0.3,0.2c-0.3,0-0.7,0-1,0c-0.9,0.1-1.5-0.4-2.1-1c-0.3-0.3-0.5-0.7-0.7-1.1v-0.1c0-0.1,0.1-0.1,0.1-0.2
			c0.2-0.3,0.4-0.7,0.5-1.1c0.3-0.6,0.6-1.1,0.8-1.7c0,0,0,0,0-0.1c0.1-0.1,0.1-0.2-0.1-0.3c-0.4-0.2-0.9-0.5-1.3-0.7
			c0-0.1,0.1-0.1,0.1-0.1h4.3c0.1,0,0.2,0,0.2,0.1C244.8,143,245.5,144.2,246.3,145.6C246.3,145.6,246.3,145.6,246.3,145.6z"/>
		<path class="st4" d="M258.7,147.2c-0.3,0.5-0.5,1.1-0.8,1.6c0,0.1-0.1,0.2-0.1,0.3c-0.2,0.4-0.4,0.8-0.6,1.2
			c-0.4,0.7-0.8,1.3-1.4,1.8c-0.7,0.6-1.6,0.8-2.5,0.8c-0.4,0-0.7,0-1.1,0c-0.1,0-0.2,0-0.2,0.2v1.2c0,0,0,0.1,0,0.1
			c-0.1,0-0.1-0.1-0.1-0.1c-0.7-1.2-1.3-2.4-2-3.6c-0.1-0.1-0.1-0.2,0-0.3c0.7-1.2,1.3-2.4,2-3.6c0-0.1,0-0.1,0.1-0.2
			c0,0.4,0,0.8,0,1.2c0,0.1,0,0.2,0.2,0.2h4.3C257.2,148.1,258,147.8,258.7,147.2C258.6,147.2,258.6,147.1,258.7,147.2
			C258.7,147.1,258.7,147.2,258.7,147.2z"/>
		<path class="st4" d="M256.4,137.5c0,0.1,0,0.1-0.1,0.2c-0.2,0.4-0.4,0.7-0.6,1.1c-0.2,0.4-0.4,0.8-0.7,1.2
			c-0.3,0.5-0.5,0.9-0.8,1.4c0,0.1-0.1,0.2-0.2,0.2c-1.5,0-3.1,0-4.6,0c0,0,0,0,0,0c0-0.1,0.1-0.1,0.1-0.1c0.4-0.2,0.8-0.4,1.2-0.7
			c0.1,0,0.1-0.1,0.1-0.2c-0.7-1.6-1.6-3.2-2.9-4.5c-0.2-0.2-0.5-0.4-0.7-0.6h2c1,0,2,0,3,0c0.1,0,0.3,0,0.4,0
			c0.6,0.1,1.1,0.4,1.5,0.9c0.3,0.4,0.6,0.9,0.8,1.3c0.1,0.1,0.1,0.2,0.2,0.4c0.1,0.2,0.2,0.2,0.3,0.1
			C255.7,137.8,256.1,137.7,256.4,137.5z"/>
		<path class="st4" d="M248,148.1c-2,0-4,0-6,0c-0.6,0-1.1-0.2-1.6-0.5c-0.3-0.2-0.6-0.4-0.8-0.6c0,0.1,0,0.1,0.1,0.2
			c0.2,0.5,0.5,0.9,0.7,1.4c0,0.1,0.1,0.1,0.1,0.2c0.1,0.1,0.1,0.2,0.2,0.3c0.3,0.6,0.7,1.2,1,1.7c0.5,0.7,1.1,1.4,2,1.8
			c0.3,0.1,0.6,0.3,0.9,0.3h3.5c0.2,0,0.2,0,0.2-0.2c0-1.5,0-3,0-4.4C248.2,148.2,248.1,148.1,248,148.1z"/>
		<path class="st4" d="M259.1,145.9c-0.1,0.4-0.4,0.8-0.7,1.1c-0.4,0.4-0.9,0.7-1.5,0.8c-0.3,0-0.6,0-0.9,0c-0.3,0-0.5,0-0.8,0
			c-0.1,0-0.2,0-0.2-0.1c-0.7-1.2-1.3-2.4-1.9-3.6c-0.1-0.1,0-0.1,0.1-0.2c1.3-0.8,2.6-1.6,3.9-2.4c0.1-0.1,0.1,0,0.2,0.1
			c0.2,0.4,0.4,0.7,0.5,1.1c0.5,0.9,0.9,1.9,1.4,2.8C259.2,145.6,259.1,145.8,259.1,145.9z"/>
		<path class="st4" d="M248.8,137.7c-0.6,1.2-1.3,2.4-1.9,3.6c-0.1,0.1-0.1,0.1-0.2,0.1c-1.1-0.7-2.1-1.3-3.2-2
			c-0.2-0.2-0.5-0.3-0.7-0.5c-0.1-0.1-0.1-0.1-0.1-0.2v0c0.3-0.4,0.5-0.7,0.7-1.1c0.4-0.6,0.8-1.2,1.3-1.9c0.1-0.1,0.1-0.1,0.2-0.1
			c0.3-0.1,0.6-0.2,0.8-0.2h0.1c0.9,0,1.5,0.4,2,0.9c0.3,0.3,0.6,0.7,0.9,1.1C248.9,137.6,248.9,137.7,248.8,137.7z"/>
	</g>
	<g>
		<path class="st4" d="M238.9,149.9c-0.4,0.2-0.9,0.5-1.3,0.7c-4.3,2-8.8,3.4-13.4,4.4c-4.1,0.9-8.2,1.4-12.3,1.7
			c-0.7,0.1-1.4,0.1-2.1,0.1c-0.1,0-0.2,0-0.3,0c-0.6,0-1.1,0-1.7,0.1c-10.9,0.2-21.5-0.8-31.7-3.7c-5.3-1.1-10.6-2.6-16.1-3.9
			c-5.5-1.3-11.1-2.4-17-2.7c-5.8-0.3-11.7,0.2-17.2,1.5c-5.5,1.4-10.8,3.8-15.3,7c4.6-3.2,10.2-4.7,15.6-4.8
			c5.5-0.3,10.9,0.5,16.1,1.9c10.4,2.8,20.5,7,31.6,10.1c5.7,1.2,11.5,1.9,17.4,2c0.7,0,1.4,0,2.1,0c0.4,0,0.8,0,1.2,0
			c4.7-0.1,9.4-0.8,14-1.8c5.6-1.3,11.1-3.1,16.3-5.4c0.2-0.1,0.4-0.2,0.6-0.3c3.3-1.4,6.4-3,9.5-4.7
			C236.3,151.3,237.6,150.6,238.9,149.9C238.9,149.9,238.9,149.9,238.9,149.9z"/>
	</g>
	<g>
		<path class="st4" d="M389.4,154.2c-4.6-3.2-10.2-4.6-15.7-4.7c-5.4-0.2-10.9,0.6-16,2c-10.4,2.9-20.4,7.2-31.6,10.4
			c-5.1,1.1-10.3,1.9-15.6,2.1c-0.4,0-0.7,0-1.1,0c-0.2,0-0.5,0-0.7,0c-5.8,0.1-11.7-0.5-17.3-1.7c-5.6-1.2-11.1-3-16.3-5.2
			c-0.1-0.1-0.3-0.1-0.4-0.2c-5.1-2.2-9.9-4.7-14.7-7.3c4.9,2.6,10.3,4.2,15.7,5.4c3.6,0.7,7.3,1.2,11,1.5c1.8,0.1,3.6,0.2,5.4,0.2
			c0.8,0,1.6,0,2.4,0c0.1,0,0.2,0,0.3,0c9.9-0.1,19.6-1.2,29-3.9c5.3-1.1,10.6-2.7,16-4c5.5-1.4,11.1-2.5,16.9-2.9
			c5.8-0.3,11.6,0.1,17.2,1.3C379.6,148.6,384.9,150.9,389.4,154.2z"/>
	</g>
	<g>
		<path class="st16" d="M314,300.2h-1.3v-0.5h3.1v0.5h-1.3v3.8H314V300.2z"/>
		<path class="st16" d="M319.9,302.1c0-0.6-0.1-1.3-0.1-1.8h0c-0.1,0.5-0.3,1-0.5,1.6l-0.7,2.1h-0.4l-0.7-2
			c-0.2-0.6-0.4-1.1-0.5-1.6h0c0,0.5,0,1.2-0.1,1.9l-0.1,1.8h-0.5l0.3-4.2h0.7l0.7,2c0.2,0.5,0.3,1,0.4,1.4h0
			c0.1-0.4,0.3-0.9,0.4-1.4l0.8-2h0.7l0.3,4.2H320L319.9,302.1z"/>
	</g>
</g>
</svg>
